<?xml version="1.0" encoding="UTF-8" standalone="no"?>
<svg
   xmlns:dc="http://purl.org/dc/elements/1.1/"
   xmlns:cc="http://creativecommons.org/ns#"
   xmlns:rdf="http://www.w3.org/1999/02/22-rdf-syntax-ns#"
   xmlns:svg="http://www.w3.org/2000/svg"
   xmlns="http://www.w3.org/2000/svg"
   xmlns:xlink="http://www.w3.org/1999/xlink"
   xmlns:sodipodi="http://sodipodi.sourceforge.net/DTD/sodipodi-0.dtd"
   xmlns:inkscape="http://www.inkscape.org/namespaces/inkscape"
   width="924.5"
   height="191.89999"
   viewBox="0 0 924.5 191.89999"
   version="1.1"
   id="svg218"
   sodipodi:docname="sine.svg"
   inkscape:version="1.0.2 (394de47547, 2021-03-26)">
  <metadata
     id="metadata224">
    <rdf:RDF>
      <cc:Work
         rdf:about="">
        <dc:format>image/svg+xml</dc:format>
        <dc:type
           rdf:resource="http://purl.org/dc/dcmitype/StillImage" />
        <dc:title>Gnuplot</dc:title>
      </cc:Work>
    </rdf:RDF>
  </metadata>
  <defs
     id="defs222" />
  <sodipodi:namedview
     pagecolor="#ffffff"
     bordercolor="#666666"
     borderopacity="1"
     objecttolerance="10"
     gridtolerance="10"
     guidetolerance="10"
     inkscape:pageopacity="0"
     inkscape:pageshadow="2"
     inkscape:window-width="1848"
     inkscape:window-height="1016"
     id="namedview220"
     showgrid="false"
     inkscape:zoom="1.316"
     inkscape:cx="487.65675"
     inkscape:cy="95.339692"
     inkscape:window-x="72"
     inkscape:window-y="27"
     inkscape:window-maximized="1"
     inkscape:current-layer="gnuplot_plot_1" />
  <title
     id="title2">Gnuplot</title>
  <desc
     id="desc4">Produced by GNUPLOT 5.0 patchlevel 4 </desc>
  <g
     id="gnuplot_canvas"
     transform="translate(-12.343246,-4.6603083)">
    <defs
       id="defs34">
      <circle
         id="gpDot"
         r="0.5"
         stroke-width="0.5"
         cx="0"
         cy="0" />
      <path
         id="gpPt0"
         stroke-width="0.133"
         stroke="currentColor"
         d="M -1,0 H 1 M 0,-1 v 2" />
      <path
         id="gpPt1"
         stroke-width="0.133"
         stroke="currentColor"
         d="M -1,-1 1,1 M 1,-1 -1,1" />
      <path
         id="gpPt2"
         stroke-width="0.133"
         stroke="currentColor"
         d="M -1,0 H 1 M 0,-1 v 2 m -1,-2 2,2 m -2,0 2,-2" />
      <rect
         id="gpPt3"
         stroke-width="0.133"
         stroke="currentColor"
         x="-1"
         y="-1"
         width="2"
         height="2" />
      <rect
         id="gpPt4"
         stroke-width="0.133"
         stroke="currentColor"
         fill="currentColor"
         x="-1"
         y="-1"
         width="2"
         height="2" />
      <circle
         id="gpPt5"
         stroke-width="0.133"
         stroke="currentColor"
         cx="0"
         cy="0"
         r="1" />
      <use
         xlink:href="#gpPt5"
         id="gpPt6"
         fill="currentColor"
         stroke="none"
         x="0"
         y="0"
         width="100%"
         height="100%" />
      <path
         id="gpPt7"
         stroke-width="0.133"
         stroke="currentColor"
         d="m 0,-1.33 -1.33,2 h 2.66 z" />
      <use
         xlink:href="#gpPt7"
         id="gpPt8"
         fill="currentColor"
         stroke="none"
         x="0"
         y="0"
         width="100%"
         height="100%" />
      <use
         xlink:href="#gpPt7"
         id="gpPt9"
         stroke="currentColor"
         transform="scale(-1)"
         x="0"
         y="0"
         width="100%"
         height="100%" />
      <use
         xlink:href="#gpPt9"
         id="gpPt10"
         fill="currentColor"
         stroke="none"
         x="0"
         y="0"
         width="100%"
         height="100%" />
      <use
         xlink:href="#gpPt3"
         id="gpPt11"
         stroke="currentColor"
         transform="rotate(45)"
         x="0"
         y="0"
         width="100%"
         height="100%" />
      <use
         xlink:href="#gpPt11"
         id="gpPt12"
         fill="currentColor"
         stroke="none"
         x="0"
         y="0"
         width="100%"
         height="100%" />
      <path
         id="gpPt13"
         stroke-width="0.133"
         stroke="currentColor"
         d="M 0,1.33 1.265,0.411 0.782,-1.067 -0.782,-1.076 -1.265,0.411 Z" />
      <use
         xlink:href="#gpPt13"
         id="gpPt14"
         fill="currentColor"
         stroke="none"
         x="0"
         y="0"
         width="100%"
         height="100%" />
      <filter
         id="textbox"
         filterUnits="objectBoundingBox"
         x="0"
         y="0"
         height="1"
         width="1">
        <feFlood
           flood-color="white"
           flood-opacity="1"
           result="bgnd"
           id="feFlood24" />
        <feComposite
           in="SourceGraphic"
           in2="bgnd"
           operator="atop"
           id="feComposite26" />
      </filter>
      <filter
         id="greybox"
         filterUnits="objectBoundingBox"
         x="0"
         y="0"
         height="1"
         width="1">
        <feFlood
           flood-color="lightgrey"
           flood-opacity="1"
           result="grey"
           id="feFlood29" />
        <feComposite
           in="SourceGraphic"
           in2="grey"
           operator="atop"
           id="feComposite31" />
      </filter>
    </defs>
    <g
       fill="none"
       color="#ffffff"
       stroke="#000000"
       stroke-width="1"
       stroke-linecap="butt"
       stroke-linejoin="miter"
       id="g36"
       transform="translate(-21.856754,0.5603083)" />
    <g
       fill="none"
       color="#000000"
       stroke="currentColor"
       stroke-width="1"
       stroke-linecap="butt"
       stroke-linejoin="miter"
       id="g38"
       transform="translate(-21.856754,0.5603083)" />
    <g
       fill="none"
       color="#000000"
       stroke="#000000"
       stroke-width="0.5"
       stroke-linecap="butt"
       stroke-linejoin="miter"
       id="g40"
       transform="translate(-21.856754,0.5603083)" />
    <g
       fill="none"
       color="#808080"
       stroke="currentColor"
       stroke-width="0.5"
       stroke-linecap="butt"
       stroke-linejoin="miter"
       id="g44"
       transform="translate(-21.856754,0.5603083)">
      <path
         stroke="#808080"
         stroke-dasharray="2, 4"
         class="gridline"
         d="M 35,164 H 957.9"
         id="path42" />
    </g>
    <g
       fill="none"
       color="#808080"
       stroke="#808080"
       stroke-width="1"
       stroke-linecap="butt"
       stroke-linejoin="miter"
       id="g46"
       transform="translate(-21.856754,0.5603083)" />
    <g
       fill="none"
       color="#000000"
       stroke="currentColor"
       stroke-width="1"
       stroke-linecap="butt"
       stroke-linejoin="miter"
       id="g54"
       transform="translate(-21.856754,0.5603083)">
      <path
         stroke="#000000"
         d="m 35,164 m 922.9,0"
         id="path48" />
      <g
         transform="translate(21,171.5)"
         stroke="none"
         fill="#000000"
         font-family="'Times New Roman'"
         font-size="20px"
         text-anchor="end"
         id="g52">
        <g
           id="text50" />
      </g>
    </g>
    <g
       fill="none"
       color="#000000"
       stroke="currentColor"
       stroke-width="1"
       stroke-linecap="butt"
       stroke-linejoin="miter"
       id="g56"
       transform="translate(-21.856754,0.5603083)" />
    <g
       fill="none"
       color="#000000"
       stroke="#000000"
       stroke-width="0.5"
       stroke-linecap="butt"
       stroke-linejoin="miter"
       id="g58"
       transform="translate(-21.856754,0.5603083)" />
    <g
       fill="none"
       color="#808080"
       stroke="currentColor"
       stroke-width="0.5"
       stroke-linecap="butt"
       stroke-linejoin="miter"
       id="g62"
       transform="translate(-21.856754,0.5603083)">
      <path
         stroke="#808080"
         stroke-dasharray="2, 4"
         class="gridline"
         d="M 35,100 H 957.9"
         id="path60" />
    </g>
    <g
       fill="none"
       color="#808080"
       stroke="#808080"
       stroke-width="1"
       stroke-linecap="butt"
       stroke-linejoin="miter"
       id="g64"
       transform="translate(-21.856754,0.5603083)" />
    <g
       fill="none"
       color="#000000"
       stroke="currentColor"
       stroke-width="1"
       stroke-linecap="butt"
       stroke-linejoin="miter"
       id="g72"
       transform="translate(-21.856754,0.5603083)">
      <path
         stroke="#000000"
         d="m 35,100 m 922.9,0"
         id="path66" />
      <g
         transform="translate(21,107.5)"
         stroke="none"
         fill="#000000"
         font-family="'Times New Roman'"
         font-size="20px"
         text-anchor="end"
         id="g70">
        <g
           id="text68" />
      </g>
    </g>
    <g
       fill="none"
       color="#000000"
       stroke="currentColor"
       stroke-width="1"
       stroke-linecap="butt"
       stroke-linejoin="miter"
       id="g74"
       transform="translate(-21.856754,0.5603083)" />
    <g
       fill="none"
       color="#000000"
       stroke="#000000"
       stroke-width="0.5"
       stroke-linecap="butt"
       stroke-linejoin="miter"
       id="g76"
       transform="translate(-21.856754,0.5603083)" />
    <g
       fill="none"
       color="#808080"
       stroke="currentColor"
       stroke-width="0.5"
       stroke-linecap="butt"
       stroke-linejoin="miter"
       id="g80"
       transform="translate(-21.856754,0.5603083)">
      <path
         stroke="#808080"
         stroke-dasharray="2, 4"
         class="gridline"
         d="M 35,36.1 H 957.9"
         id="path78" />
    </g>
    <g
       fill="none"
       color="#808080"
       stroke="#808080"
       stroke-width="1"
       stroke-linecap="butt"
       stroke-linejoin="miter"
       id="g82"
       transform="translate(-21.856754,0.5603083)" />
    <g
       fill="none"
       color="#000000"
       stroke="currentColor"
       stroke-width="1"
       stroke-linecap="butt"
       stroke-linejoin="miter"
       id="g90"
       transform="translate(-21.856754,0.5603083)">
      <path
         stroke="#000000"
         d="m 35,36.1 m 922.9,0"
         id="path84" />
      <g
         transform="translate(21,43.6)"
         stroke="none"
         fill="#000000"
         font-family="'Times New Roman'"
         font-size="20px"
         text-anchor="end"
         id="g88">
        <g
           id="text86" />
      </g>
    </g>
    <g
       fill="none"
       color="#000000"
       stroke="currentColor"
       stroke-width="1"
       stroke-linecap="butt"
       stroke-linejoin="miter"
       id="g92"
       transform="translate(-21.856754,0.5603083)" />
    <g
       fill="none"
       color="#000000"
       stroke="#000000"
       stroke-width="0.5"
       stroke-linecap="butt"
       stroke-linejoin="miter"
       id="g94"
       transform="translate(-21.856754,0.5603083)" />
    <g
       fill="none"
       color="#808080"
       stroke="currentColor"
       stroke-width="0.5"
       stroke-linecap="butt"
       stroke-linejoin="miter"
       id="g98"
       transform="translate(-21.856754,0.5603083)">
      <path
         stroke="#808080"
         stroke-dasharray="2, 4"
         class="gridline"
         d="M 35,196 V 4.1"
         id="path96" />
    </g>
    <g
       fill="none"
       color="#808080"
       stroke="#808080"
       stroke-width="1"
       stroke-linecap="butt"
       stroke-linejoin="miter"
       id="g100"
       transform="translate(-21.856754,0.5603083)" />
    <g
       fill="none"
       color="#000000"
       stroke="currentColor"
       stroke-width="1"
       stroke-linecap="butt"
       stroke-linejoin="miter"
       id="g104"
       transform="translate(-21.856754,0.5603083)">
      <path
         stroke="#000000"
         d="M 35,196 M 35,4.1"
         id="path102" />
    </g>
    <g
       fill="none"
       color="#000000"
       stroke="currentColor"
       stroke-width="1"
       stroke-linecap="butt"
       stroke-linejoin="miter"
       id="g106"
       transform="translate(-21.856754,0.5603083)" />
    <g
       fill="none"
       color="#000000"
       stroke="#000000"
       stroke-width="0.5"
       stroke-linecap="butt"
       stroke-linejoin="miter"
       id="g108"
       transform="translate(-21.856754,0.5603083)" />
    <g
       fill="none"
       color="#808080"
       stroke="currentColor"
       stroke-width="0.5"
       stroke-linecap="butt"
       stroke-linejoin="miter"
       id="g112"
       transform="translate(-21.856754,0.5603083)">
      <path
         stroke="#808080"
         stroke-dasharray="2, 4"
         class="gridline"
         d="M 188.8,196 V 4.1"
         id="path110" />
    </g>
    <g
       fill="none"
       color="#808080"
       stroke="#808080"
       stroke-width="1"
       stroke-linecap="butt"
       stroke-linejoin="miter"
       id="g114"
       transform="translate(-21.856754,0.5603083)" />
    <g
       fill="none"
       color="#000000"
       stroke="currentColor"
       stroke-width="1"
       stroke-linecap="butt"
       stroke-linejoin="miter"
       id="g118"
       transform="translate(-21.856754,0.5603083)">
      <path
         stroke="#000000"
         d="m 188.8,196 m 0,-191.9"
         id="path116" />
    </g>
    <g
       fill="none"
       color="#000000"
       stroke="currentColor"
       stroke-width="1"
       stroke-linecap="butt"
       stroke-linejoin="miter"
       id="g120"
       transform="translate(-21.856754,0.5603083)" />
    <g
       fill="none"
       color="#000000"
       stroke="#000000"
       stroke-width="0.5"
       stroke-linecap="butt"
       stroke-linejoin="miter"
       id="g122"
       transform="translate(-21.856754,0.5603083)" />
    <g
       fill="none"
       color="#808080"
       stroke="currentColor"
       stroke-width="0.5"
       stroke-linecap="butt"
       stroke-linejoin="miter"
       id="g126"
       transform="translate(-21.856754,0.5603083)">
      <path
         stroke="#808080"
         stroke-dasharray="2, 4"
         class="gridline"
         d="M 342.6,196 V 4.1"
         id="path124" />
    </g>
    <g
       fill="none"
       color="#808080"
       stroke="#808080"
       stroke-width="1"
       stroke-linecap="butt"
       stroke-linejoin="miter"
       id="g128"
       transform="translate(-21.856754,0.5603083)" />
    <g
       fill="none"
       color="#000000"
       stroke="currentColor"
       stroke-width="1"
       stroke-linecap="butt"
       stroke-linejoin="miter"
       id="g132"
       transform="translate(-21.856754,0.5603083)">
      <path
         stroke="#000000"
         d="m 342.6,196 m 0,-191.9"
         id="path130" />
    </g>
    <g
       fill="none"
       color="#000000"
       stroke="currentColor"
       stroke-width="1"
       stroke-linecap="butt"
       stroke-linejoin="miter"
       id="g134"
       transform="translate(-21.856754,0.5603083)" />
    <g
       fill="none"
       color="#000000"
       stroke="#000000"
       stroke-width="0.5"
       stroke-linecap="butt"
       stroke-linejoin="miter"
       id="g136"
       transform="translate(-21.856754,0.5603083)" />
    <g
       fill="none"
       color="#808080"
       stroke="currentColor"
       stroke-width="0.5"
       stroke-linecap="butt"
       stroke-linejoin="miter"
       id="g140"
       transform="translate(-21.856754,0.5603083)">
      <path
         stroke="#808080"
         stroke-dasharray="2, 4"
         class="gridline"
         d="M 496.5,196 V 4.1"
         id="path138" />
    </g>
    <g
       fill="none"
       color="#808080"
       stroke="#808080"
       stroke-width="1"
       stroke-linecap="butt"
       stroke-linejoin="miter"
       id="g142"
       transform="translate(-21.856754,0.5603083)" />
    <g
       fill="none"
       color="#000000"
       stroke="currentColor"
       stroke-width="1"
       stroke-linecap="butt"
       stroke-linejoin="miter"
       id="g146"
       transform="translate(-21.856754,0.5603083)">
      <path
         stroke="#000000"
         d="m 496.5,196 m 0,-191.9"
         id="path144" />
    </g>
    <g
       fill="none"
       color="#000000"
       stroke="currentColor"
       stroke-width="1"
       stroke-linecap="butt"
       stroke-linejoin="miter"
       id="g148"
       transform="translate(-21.856754,0.5603083)" />
    <g
       fill="none"
       color="#000000"
       stroke="#000000"
       stroke-width="0.5"
       stroke-linecap="butt"
       stroke-linejoin="miter"
       id="g150"
       transform="translate(-21.856754,0.5603083)" />
    <g
       fill="none"
       color="#808080"
       stroke="currentColor"
       stroke-width="0.5"
       stroke-linecap="butt"
       stroke-linejoin="miter"
       id="g154"
       transform="translate(-21.856754,0.5603083)">
      <path
         stroke="#808080"
         stroke-dasharray="2, 4"
         class="gridline"
         d="M 650.3,196 V 4.1"
         id="path152" />
    </g>
    <g
       fill="none"
       color="#808080"
       stroke="#808080"
       stroke-width="1"
       stroke-linecap="butt"
       stroke-linejoin="miter"
       id="g156"
       transform="translate(-21.856754,0.5603083)" />
    <g
       fill="none"
       color="#000000"
       stroke="currentColor"
       stroke-width="1"
       stroke-linecap="butt"
       stroke-linejoin="miter"
       id="g160"
       transform="translate(-21.856754,0.5603083)">
      <path
         stroke="#000000"
         d="m 650.3,196 m 0,-191.9"
         id="path158" />
    </g>
    <g
       fill="none"
       color="#000000"
       stroke="currentColor"
       stroke-width="1"
       stroke-linecap="butt"
       stroke-linejoin="miter"
       id="g162"
       transform="translate(-21.856754,0.5603083)" />
    <g
       fill="none"
       color="#000000"
       stroke="#000000"
       stroke-width="0.5"
       stroke-linecap="butt"
       stroke-linejoin="miter"
       id="g164"
       transform="translate(-21.856754,0.5603083)" />
    <g
       fill="none"
       color="#808080"
       stroke="currentColor"
       stroke-width="0.5"
       stroke-linecap="butt"
       stroke-linejoin="miter"
       id="g168"
       transform="translate(-21.856754,0.5603083)">
      <path
         stroke="#808080"
         stroke-dasharray="2, 4"
         class="gridline"
         d="M 804.1,196 V 4.1"
         id="path166" />
    </g>
    <g
       fill="none"
       color="#808080"
       stroke="#808080"
       stroke-width="1"
       stroke-linecap="butt"
       stroke-linejoin="miter"
       id="g170"
       transform="translate(-21.856754,0.5603083)" />
    <g
       fill="none"
       color="#000000"
       stroke="currentColor"
       stroke-width="1"
       stroke-linecap="butt"
       stroke-linejoin="miter"
       id="g174"
       transform="translate(-21.856754,0.5603083)">
      <path
         stroke="#000000"
         d="m 804.1,196 m 0,-191.9"
         id="path172" />
    </g>
    <g
       fill="none"
       color="#000000"
       stroke="currentColor"
       stroke-width="1"
       stroke-linecap="butt"
       stroke-linejoin="miter"
       id="g176"
       transform="translate(-21.856754,0.5603083)" />
    <g
       fill="none"
       color="#000000"
       stroke="#000000"
       stroke-width="0.5"
       stroke-linecap="butt"
       stroke-linejoin="miter"
       id="g178"
       transform="translate(-21.856754,0.5603083)" />
    <g
       fill="none"
       color="#808080"
       stroke="currentColor"
       stroke-width="0.5"
       stroke-linecap="butt"
       stroke-linejoin="miter"
       id="g182"
       transform="translate(-21.856754,0.5603083)">
      <path
         stroke="#808080"
         stroke-dasharray="2, 4"
         class="gridline"
         d="M 957.9,196 V 4.1"
         id="path180" />
    </g>
    <g
       fill="none"
       color="#808080"
       stroke="#808080"
       stroke-width="1"
       stroke-linecap="butt"
       stroke-linejoin="miter"
       id="g184"
       transform="translate(-21.856754,0.5603083)" />
    <g
       fill="none"
       color="#000000"
       stroke="currentColor"
       stroke-width="1"
       stroke-linecap="butt"
       stroke-linejoin="miter"
       id="g188"
       transform="translate(-21.856754,0.5603083)">
      <path
         stroke="#000000"
         d="m 957.9,196 m 0,-191.9"
         id="path186" />
    </g>
    <g
       fill="none"
       color="#000000"
       stroke="currentColor"
       stroke-width="1"
       stroke-linecap="butt"
       stroke-linejoin="miter"
       id="g190"
       transform="translate(-21.856754,0.5603083)" />
    <g
       fill="none"
       color="#000000"
       stroke="currentColor"
       stroke-width="1"
       stroke-linecap="butt"
       stroke-linejoin="miter"
       id="g196"
       transform="translate(-21.856754,0.5603083)" />
    <g
       id="gnuplot_plot_1"
       transform="translate(-21.856754,0.5603083)">
      <title
         id="title198">sine(x)</title>
      <g
         fill="none"
         color="#ffffff"
         stroke="#000000"
         stroke-width="2"
         stroke-linecap="butt"
         stroke-linejoin="miter"
         id="g200" />
      <g
         fill="none"
         color="#000000"
         stroke="currentColor"
         stroke-width="2"
         stroke-linecap="butt"
         stroke-linejoin="miter"
         id="g204"
         style="stroke-width:5;stroke-miterlimit:4;stroke-dasharray:none;stroke:#96a339;stroke-opacity:1">
        <path
           stroke="#9400d3"
           d="m 35,100 0.3,-0.4 0.3,-0.4 0.3,-0.4 0.3,-0.4 0.3,-0.4 0.3,-0.4 0.4,-0.4 0.3,-0.4 0.3,-0.4 0.3,-0.4 0.3,-0.4 0.3,-0.4 0.3,-0.4 0.3,-0.4 0.3,-0.4 0.3,-0.4 0.3,-0.4 0.3,-0.4 0.3,-0.4 0.4,-0.4 0.3,-0.4 0.3,-0.4 0.3,-0.4 0.3,-0.4 0.3,-0.4 0.3,-0.4 0.3,-0.3 0.3,-0.4 0.3,-0.4 0.3,-0.4 0.3,-0.4 0.3,-0.4 0.4,-0.4 0.3,-0.4 0.3,-0.4 0.3,-0.4 0.3,-0.4 0.3,-0.4 0.3,-0.4 0.3,-0.4 0.3,-0.3 0.3,-0.4 0.3,-0.4 0.3,-0.4 0.3,-0.4 0.4,-0.4 0.3,-0.4 0.3,-0.4 0.3,-0.3 0.3,-0.4 0.3,-0.4 0.3,-0.4 0.3,-0.4 0.3,-0.3 0.3,-0.4 0.3,-0.4 0.3,-0.4 0.3,-0.3 0.4,-0.4 0.3,-0.4 0.3,-0.4 0.3,-0.3 0.3,-0.4 0.3,-0.4 0.3,-0.4 0.3,-0.3 0.3,-0.4 0.3,-0.4 0.3,-0.3 0.3,-0.4 0.3,-0.3 0.3,-0.4 0.4,-0.4 0.3,-0.3 0.3,-0.4 0.3,-0.3 0.3,-0.4 0.3,-0.4 0.3,-0.3 0.3,-0.4 0.3,-0.3 0.3,-0.4 0.3,-0.3 0.3,-0.4 0.3,-0.3 0.4,-0.4 0.3,-0.3 0.3,-0.3 0.3,-0.4 0.3,-0.3 0.3,-0.4 0.3,-0.3 0.3,-0.3 0.3,-0.4 0.3,-0.3 0.3,-0.3 0.3,-0.4 0.3,-0.3 0.4,-0.3 0.3,-0.3 0.3,-0.4 0.3,-0.3 0.3,-0.3 0.3,-0.3 0.3,-0.4 0.3,-0.3 0.3,-0.3 0.3,-0.3 0.3,-0.3 0.3,-0.3 0.3,-0.3 0.4,-0.3 0.3,-0.3 0.3,-0.3 0.3,-0.4 0.3,-0.3 0.3,-0.3 0.3,-0.2 0.3,-0.3 0.3,-0.3 0.3,-0.3 0.3,-0.3 0.3,-0.3 0.3,-0.3 0.4,-0.3 0.3,-0.3 0.3,-0.2 0.3,-0.3 0.3,-0.3 0.3,-0.3 0.3,-0.3 0.3,-0.2 0.3,-0.3 0.3,-0.3 0.3,-0.2 0.3,-0.3 0.3,-0.3 0.4,-0.2 0.3,-0.3 0.3,-0.2 0.3,-0.3 0.3,-0.2 0.3,-0.3 0.3,-0.2 0.3,-0.3 0.3,-0.2 0.3,-0.3 0.3,-0.2 0.3,-0.3 0.3,-0.2 0.4,-0.2 0.3,-0.3 0.3,-0.2 0.3,-0.2 0.3,-0.3 0.3,-0.2 0.3,-0.2 0.3,-0.2 0.3,-0.2 0.3,-0.3 0.3,-0.2 0.3,-0.2 0.3,-0.2 0.4,-0.2 0.3,-0.2 0.3,-0.2 0.3,-0.2 0.3,-0.2 0.3,-0.2 0.3,-0.2 0.3,-0.2 0.3,-0.2 0.3,-0.2 0.3,-0.2 0.3,-0.1 0.3,-0.2 0.4,-0.2 0.3,-0.2 0.3,-0.2 0.3,-0.1 0.3,-0.2 0.3,-0.2 0.3,-0.1 0.3,-0.2 0.3,-0.2 0.3,-0.1 0.3,-0.2 0.3,-0.1 0.3,-0.2 0.4,-0.1 0.3,-0.2 0.3,-0.1 0.3,-0.2 0.3,-0.1 0.3,-0.1 0.3,-0.2 0.3,-0.1 0.3,-0.1 0.3,-0.2 0.3,-0.1 0.3,-0.1 0.3,-0.1 0.3,-0.1 0.4,-0.2 0.3,-0.1 0.3,-0.1 0.3,-0.1 0.3,-0.1 0.3,-0.1 0.3,-0.1 0.3,-0.1 0.3,-0.1 0.3,-0.1 0.3,-0.1 0.3,-0.1 0.3,-0.1 h 0.4 l 0.3,-0.1 0.3,-0.1 0.3,-0.1 0.3,-0.1 h 0.3 l 0.3,-0.1 0.3,-0.1 h 0.3 l 0.3,-0.1 h 0.3 l 0.3,-0.1 0.3,-0.1 h 0.4 l 0.3,-0.1 h 0.3 l 0.3,-0.1 h 0.3 0.3 l 0.3,-0.1 h 0.3 0.3 l 0.3,-0.1 h 0.3 0.3 0.3 l 0.4,-0.1 h 0.3 0.3 0.3 0.3 0.3 0.3 0.3 0.3 0.3 0.3 0.3 0.3 0.4 0.3 l 0.3,0.1 h 0.3 0.3 0.3 l 0.3,0.1 h 0.3 0.3 l 0.3,0.1 h 0.3 0.3 l 0.3,0.1 h 0.4 l 0.3,0.1 h 0.3 l 0.3,0.1 0.3,0.1 h 0.3 l 0.3,0.1 h 0.3 l 0.3,0.1 0.3,0.1 h 0.3 l 0.3,0.1 0.3,0.1 0.4,0.1 0.3,0.1 h 0.3 l 0.3,0.1 0.3,0.1 0.3,0.1 0.3,0.1 0.3,0.1 0.3,0.1 0.3,0.1 0.3,0.1 0.3,0.1 0.3,0.1 0.4,0.1 0.3,0.1 0.3,0.2 0.3,0.1 0.3,0.1 0.3,0.1 0.3,0.1 0.3,0.2 0.3,0.1 0.3,0.1 0.3,0.2 0.3,0.1 0.3,0.1 0.4,0.2 0.3,0.1 0.3,0.2 0.3,0.1 0.3,0.2 0.3,0.1 0.3,0.2 0.3,0.1 0.3,0.2 0.3,0.2 0.3,0.1 0.3,0.2 0.3,0.2 0.4,0.1 0.3,0.2 0.3,0.2 0.3,0.2 0.3,0.2 0.3,0.1 0.3,0.2 0.3,0.2 0.3,0.2 0.3,0.2 0.3,0.2 0.3,0.2 0.3,0.2 0.3,0.2 0.4,0.2 0.3,0.2 0.3,0.2 0.3,0.2 0.3,0.2 0.3,0.2 0.3,0.3 0.3,0.2 0.3,0.2 0.3,0.2 0.3,0.2 0.3,0.3 0.3,0.2 0.4,0.2 0.3,0.3 0.3,0.2 0.3,0.2 0.3,0.3 0.3,0.2 0.3,0.3 0.3,0.2 0.3,0.3 0.3,0.2 0.3,0.3 0.3,0.2 0.3,0.3 0.4,0.2 0.3,0.3 0.3,0.2 0.3,0.3 0.3,0.3 0.3,0.2 0.3,0.3 0.3,0.3 0.3,0.2 0.3,0.3 0.3,0.3 0.3,0.3 0.3,0.3 0.4,0.2 0.3,0.3 0.3,0.3 0.3,0.3 0.3,0.3 0.3,0.3 0.3,0.3 0.3,0.3 0.3,0.3 0.3,0.2 0.3,0.3 0.3,0.3 0.3,0.4 0.4,0.3 0.3,0.3 0.3,0.3 0.3,0.3 0.3,0.3 0.3,0.3 0.3,0.3 0.3,0.3 0.3,0.3 0.3,0.4 0.3,0.3 0.3,0.3 0.3,0.3 0.4,0.4 0.3,0.3 0.3,0.3 0.3,0.3 0.3,0.4 0.3,0.3 0.3,0.3 0.3,0.4 0.3,0.3 0.3,0.3 0.3,0.4 0.3,0.3 0.3,0.4 0.4,0.3 0.3,0.3 0.3,0.4 0.3,0.3 0.3,0.4 0.3,0.3 0.3,0.4 0.3,0.3 0.3,0.4 0.3,0.3 0.3,0.4 0.3,0.4 0.3,0.3 0.4,0.4 0.3,0.3 0.3,0.4 0.3,0.4 0.3,0.3 0.3,0.4 0.3,0.3 0.3,0.4 0.3,0.4 0.3,0.3 0.3,0.4 0.3,0.4 0.3,0.4 0.4,0.3 0.3,0.4 0.3,0.4 0.3,0.4 0.3,0.3 0.3,0.4 0.3,0.4 0.3,0.4 0.3,0.3 0.3,0.4 0.3,0.4 0.3,0.4 0.3,0.4 0.4,0.3 0.3,0.4 0.3,0.4 0.3,0.4 0.3,0.4 0.3,0.4 0.3,0.4 0.3,0.4 0.3,0.3 0.3,0.4 0.3,0.4 0.3,0.4 0.3,0.4 0.3,0.4 0.4,0.4 0.3,0.4 0.3,0.4 0.3,0.4 0.3,0.4 0.3,0.4 0.3,0.4 0.3,0.4 0.3,0.3 0.3,0.4 0.3,0.4 0.3,0.4 0.3,0.4 0.4,0.4 0.3,0.4 0.3,0.4 0.3,0.4 0.3,0.4 0.3,0.4 0.3,0.4 0.3,0.4 0.3,0.4 0.3,0.4 0.3,0.4 0.3,0.4 0.3,0.4 0.4,0.4 0.3,0.4 0.3,0.4 0.3,0.4 0.3,0.4 0.3,0.4 0.3,0.4 0.3,0.4 0.3,0.4 0.3,0.5 0.3,0.4 0.3,0.4 0.3,0.4 0.4,0.4 0.3,0.4 0.3,0.4 0.3,0.4 0.3,0.4 0.3,0.4 0.3,0.4 0.3,0.4 0.3,0.4 0.3,0.4 0.3,0.4 0.3,0.4 0.3,0.4 0.4,0.4 0.3,0.4 0.3,0.4 0.3,0.4 0.3,0.4 0.3,0.4 0.3,0.4 0.3,0.4 0.3,0.4 0.3,0.3 0.3,0.4 0.3,0.4 0.3,0.4 0.4,0.4 0.3,0.4 0.3,0.4 0.3,0.4 0.3,0.4 0.3,0.4 0.3,0.4 0.3,0.4 0.3,0.4 0.3,0.4 0.3,0.3 0.3,0.4 0.3,0.4 0.4,0.4 0.3,0.4 0.3,0.4 0.3,0.4 0.3,0.4 0.3,0.3 0.3,0.4 0.3,0.4 0.3,0.4 0.3,0.4 0.3,0.3 0.3,0.4 0.3,0.4 0.4,0.4 0.3,0.3 0.3,0.4 0.3,0.4 0.3,0.4 0.3,0.3 0.3,0.4 0.3,0.4 0.3,0.4 0.3,0.3 0.3,0.4 0.3,0.4 0.3,0.3 0.4,0.4 0.3,0.3 0.3,0.4 0.3,0.4 0.3,0.3 0.3,0.4 0.3,0.3 0.3,0.4 0.3,0.4 0.3,0.3 0.3,0.4 0.3,0.3 0.3,0.4 0.4,0.3 0.3,0.4 0.3,0.3 0.3,0.4 0.3,0.3 0.3,0.3 0.3,0.4 0.3,0.3 0.3,0.4 0.3,0.3 0.3,0.3 0.3,0.4 0.3,0.3 0.3,0.3 0.4,0.4 0.3,0.3 0.3,0.3 0.3,0.3 0.3,0.4 0.3,0.3 0.3,0.3 0.3,0.3 0.3,0.4 0.3,0.3 0.3,0.3 0.3,0.3 0.3,0.3 0.4,0.3 0.3,0.3 0.3,0.3 0.3,0.3 0.3,0.3 0.3,0.4 0.3,0.3 0.3,0.3 0.3,0.2 0.3,0.3 0.3,0.3 0.3,0.3 0.3,0.3 0.4,0.3 0.3,0.3 0.3,0.3 0.3,0.3 0.3,0.2 0.3,0.3 0.3,0.3 0.3,0.3 0.3,0.3 0.3,0.2 0.3,0.3 0.3,0.3 0.3,0.2 0.4,0.3 0.3,0.3 0.3,0.2 0.3,0.3 0.3,0.2 0.3,0.3 0.3,0.2 0.3,0.3 0.3,0.2 0.3,0.3 0.3,0.2 0.3,0.3 0.3,0.2 0.4,0.3 0.3,0.2 0.3,0.2 0.3,0.3 0.3,0.2 0.3,0.2 0.3,0.3 0.3,0.2 0.3,0.2 0.3,0.2 0.3,0.2 0.3,0.3 0.3,0.2 0.4,0.2 0.3,0.2 0.3,0.2 0.3,0.2 0.3,0.2 0.3,0.2 0.3,0.2 0.3,0.2 0.3,0.2 0.3,0.2 0.3,0.2 0.3,0.2 0.3,0.2 0.4,0.1 0.3,0.2 0.3,0.2 0.3,0.2 0.3,0.2 0.3,0.1 0.3,0.2 0.3,0.2 0.3,0.1 0.3,0.2 0.3,0.2 0.3,0.1 0.3,0.2 0.4,0.1 0.3,0.2 0.3,0.1 0.3,0.2 0.3,0.1 0.3,0.2 0.3,0.1 0.3,0.1 0.3,0.2 0.3,0.1 0.3,0.1 0.3,0.2 0.3,0.1 0.4,0.1 0.3,0.1 0.3,0.1 0.3,0.2 0.3,0.1 0.3,0.1 0.3,0.1 0.3,0.1 0.3,0.1 0.3,0.1 0.3,0.1 0.3,0.1 0.3,0.1 0.4,0.1 0.3,0.1 0.3,0.1 h 0.3 l 0.3,0.1 0.3,0.1 0.3,0.1 0.3,0.1 h 0.3 l 0.3,0.1 0.3,0.1 h 0.3 l 0.3,0.1 h 0.3 l 0.4,0.1 0.3,0.1 h 0.3 l 0.3,0.1 h 0.3 l 0.3,0.1 h 0.3 0.3 l 0.3,0.1 h 0.3 0.3 l 0.3,0.1 h 0.3 0.4 0.3 l 0.3,0.1 h 0.3 0.3 0.3 0.3 0.3 0.3 0.3 0.3 0.3 0.3 0.4 0.3 0.3 0.3 l 0.3,-0.1 h 0.3 0.3 0.3 l 0.3,-0.1 h 0.3 0.3 l 0.3,-0.1 h 0.3 0.4 l 0.3,-0.1 h 0.3 l 0.3,-0.1 h 0.3 l 0.3,-0.1 0.3,-0.1 h 0.3 l 0.3,-0.1 h 0.3 l 0.3,-0.1 0.3,-0.1 h 0.3 l 0.4,-0.1 0.3,-0.1 0.3,-0.1 0.3,-0.1 h 0.3 l 0.3,-0.1 0.3,-0.1 0.3,-0.1 0.3,-0.1 0.3,-0.1 0.3,-0.1 0.3,-0.1 0.3,-0.1 0.4,-0.1 0.3,-0.1 0.3,-0.1 0.3,-0.1 0.3,-0.2 0.3,-0.1 0.3,-0.1 0.3,-0.1 0.3,-0.1 0.3,-0.2 0.3,-0.1 0.3,-0.1 0.3,-0.2 0.4,-0.1 0.3,-0.1 0.3,-0.2 0.3,-0.1 0.3,-0.2 0.3,-0.1 0.3,-0.2 0.3,-0.1 0.3,-0.2 0.3,-0.1 0.3,-0.2 0.3,-0.2 0.3,-0.1 0.4,-0.2 0.3,-0.2 0.3,-0.1 0.3,-0.2 0.3,-0.2 0.3,-0.2 0.3,-0.2 0.3,-0.1 0.3,-0.2 0.3,-0.2 0.3,-0.2 0.3,-0.2 0.3,-0.2 0.4,-0.2 0.3,-0.2 0.3,-0.2 0.3,-0.2 0.3,-0.2 0.3,-0.2 0.3,-0.2 0.3,-0.2 0.3,-0.2 0.3,-0.3 0.3,-0.2 0.3,-0.2 0.3,-0.2 0.4,-0.2 0.3,-0.3 0.3,-0.2 0.3,-0.2 0.3,-0.3 0.3,-0.2 0.3,-0.2 0.3,-0.3 0.3,-0.2 0.3,-0.3 0.3,-0.2 0.3,-0.3 0.3,-0.2 0.3,-0.3 0.4,-0.2 0.3,-0.3 0.3,-0.2 0.3,-0.3 0.3,-0.2 0.3,-0.3 0.3,-0.3 0.3,-0.2 0.3,-0.3 0.3,-0.3 0.3,-0.2 0.3,-0.3 0.3,-0.3 0.4,-0.3 0.3,-0.3 0.3,-0.2 0.3,-0.3 0.3,-0.3 0.3,-0.3 0.3,-0.3 0.3,-0.3 0.3,-0.3 0.3,-0.3 0.3,-0.3 0.3,-0.2 0.3,-0.3 0.4,-0.3 0.3,-0.4 0.3,-0.3 0.3,-0.3 0.3,-0.3 0.3,-0.3 0.3,-0.3 0.3,-0.3 0.3,-0.3 0.3,-0.3 0.3,-0.3 0.3,-0.4 0.3,-0.3 0.4,-0.3 0.3,-0.3 0.3,-0.4 0.3,-0.3 0.3,-0.3 0.3,-0.3 0.3,-0.4 0.3,-0.3 0.3,-0.3 0.3,-0.4 0.3,-0.3 0.3,-0.3 0.3,-0.4 0.4,-0.3 0.3,-0.4 0.3,-0.3 0.3,-0.3 0.3,-0.4 0.3,-0.3 0.3,-0.4 0.3,-0.3 0.3,-0.4 0.3,-0.3 0.3,-0.4 0.3,-0.3 0.3,-0.4 0.4,-0.4 0.3,-0.3 0.3,-0.4 0.3,-0.3 0.3,-0.4 0.3,-0.4 0.3,-0.3 0.3,-0.4 0.3,-0.3 0.3,-0.4 0.3,-0.4 0.3,-0.3 0.3,-0.4 0.4,-0.4 0.3,-0.4 0.3,-0.3 0.3,-0.4 0.3,-0.4 0.3,-0.4 0.3,-0.3 0.3,-0.4 0.3,-0.4 0.3,-0.4 0.3,-0.3 0.3,-0.4 0.3,-0.4 0.4,-0.4 0.3,-0.4 0.3,-0.3 0.3,-0.4 0.3,-0.4 0.3,-0.4 0.3,-0.4 0.3,-0.4 0.3,-0.4 0.3,-0.4 0.3,-0.3 0.3,-0.4 0.3,-0.4 0.4,-0.4 0.3,-0.4 0.3,-0.4 0.3,-0.4 0.3,-0.4 0.3,-0.4 0.3,-0.4 0.3,-0.4 0.3,-0.4 0.3,-0.4 0.3,-0.4 0.3,-0.3 0.3,-0.4 0.4,-0.4 0.3,-0.4 0.3,-0.4 0.3,-0.4 0.3,-0.4 0.3,-0.4 0.3,-0.4 0.3,-0.4 0.3,-0.4 0.3,-0.4 0.3,-0.4 0.3,-0.4 0.3,-0.4 0.3,-0.4 0.4,-0.4 0.3,-0.4 0.3,-0.4 0.3,-0.4 0.3,-0.4 0.3,-0.4 0.3,-0.4 0.3,-0.4 0.3,-0.4 0.3,-0.4 0.3,-0.4 0.3,-0.5 0.3,-0.4 0.4,-0.4 0.3,-0.4 0.3,-0.4 0.3,-0.4 0.3,-0.4 0.3,-0.4 0.3,-0.4 0.3,-0.4 0.3,-0.4 0.3,-0.4 0.3,-0.4 0.3,-0.4 0.3,-0.4 0.4,-0.4 0.3,-0.4 0.3,-0.4 0.3,-0.4 0.3,-0.4 0.3,-0.4 0.3,-0.4 0.3,-0.4 0.3,-0.4 0.3,-0.4 0.3,-0.4 0.3,-0.3 0.3,-0.4 0.4,-0.4 0.3,-0.4 0.3,-0.4 0.3,-0.4 0.3,-0.4 0.3,-0.4 0.3,-0.4 0.3,-0.4 0.3,-0.4 0.3,-0.4 0.3,-0.4 0.3,-0.4 0.3,-0.3 0.4,-0.4 0.3,-0.4 0.3,-0.4 0.3,-0.4 0.3,-0.4 0.3,-0.4 0.3,-0.4 0.3,-0.3 0.3,-0.4 0.3,-0.4 0.3,-0.4 0.3,-0.4 0.3,-0.3 0.4,-0.4 0.3,-0.4 0.3,-0.4 0.3,-0.3 0.3,-0.4 0.3,-0.4 0.3,-0.4 0.3,-0.3 0.3,-0.4 0.3,-0.4 0.3,-0.4 0.3,-0.3 0.3,-0.4 0.4,-0.4 0.3,-0.3 0.3,-0.4 0.3,-0.3 0.3,-0.4 0.3,-0.4 0.3,-0.3 0.3,-0.4 0.3,-0.3 0.3,-0.4 0.3,-0.4 0.3,-0.3 0.3,-0.4 0.4,-0.3 0.3,-0.4 0.3,-0.3 0.3,-0.4 0.3,-0.3 0.3,-0.4 0.3,-0.3 0.3,-0.3 0.3,-0.4 0.3,-0.3 0.3,-0.4 0.3,-0.3 0.3,-0.3 0.4,-0.4 0.3,-0.3 0.3,-0.3 0.3,-0.4 0.3,-0.3 0.3,-0.3 0.3,-0.3 0.3,-0.4 0.3,-0.3 0.3,-0.3 0.3,-0.3 0.3,-0.4 0.3,-0.3 0.4,-0.3 0.3,-0.3 0.3,-0.3 0.3,-0.3 0.3,-0.3 0.3,-0.3 0.3,-0.3 0.3,-0.3 0.3,-0.4 0.3,-0.3 0.3,-0.3 0.3,-0.2 0.3,-0.3 0.3,-0.3 0.4,-0.3 0.3,-0.3 0.3,-0.3 0.3,-0.3 0.3,-0.3 0.3,-0.3 0.3,-0.2 0.3,-0.3 0.3,-0.3 0.3,-0.3 0.3,-0.3 0.3,-0.2 0.3,-0.3 0.4,-0.3 0.3,-0.2 0.3,-0.3 0.3,-0.3 0.3,-0.2 0.3,-0.3 0.3,-0.2 0.3,-0.3 0.3,-0.2 0.3,-0.3 0.3,-0.2 0.3,-0.3 0.3,-0.2 0.4,-0.3 0.3,-0.2 0.3,-0.3 0.3,-0.2 0.3,-0.2 0.3,-0.3 0.3,-0.2 0.3,-0.2 0.3,-0.3 0.3,-0.2 0.3,-0.2 0.3,-0.2 0.3,-0.2 0.4,-0.3 0.3,-0.2 0.3,-0.2 0.3,-0.2 0.3,-0.2 0.3,-0.2 0.3,-0.2 0.3,-0.2 0.3,-0.2 0.3,-0.2 0.3,-0.2 0.3,-0.2 0.3,-0.2 0.4,-0.2 0.3,-0.2 0.3,-0.1 0.3,-0.2 0.3,-0.2 0.3,-0.2 0.3,-0.2 0.3,-0.1 0.3,-0.2 0.3,-0.2 0.3,-0.1 0.3,-0.2 0.3,-0.2 0.4,-0.1 0.3,-0.2 0.3,-0.1 0.3,-0.2 0.3,-0.1 0.3,-0.2 0.3,-0.1 0.3,-0.2 0.3,-0.1 0.3,-0.1 0.3,-0.2 0.3,-0.1 0.3,-0.1 0.4,-0.2 0.3,-0.1 0.3,-0.1 0.3,-0.1 0.3,-0.1 0.3,-0.2 0.3,-0.1 0.3,-0.1 0.3,-0.1 0.3,-0.1 0.3,-0.1 0.3,-0.1 0.3,-0.1 0.4,-0.1 0.3,-0.1 0.3,-0.1 0.3,-0.1 0.3,-0.1 h 0.3 l 0.3,-0.1 0.3,-0.1 0.3,-0.1 0.3,-0.1 h 0.3 l 0.3,-0.1 0.3,-0.1 h 0.4 l 0.3,-0.1 h 0.3 l 0.3,-0.1 0.3,-0.1 h 0.3 l 0.3,-0.1 h 0.3 l 0.3,-0.1 h 0.3 0.3 l 0.3,-0.1 h 0.3 0.4 l 0.3,-0.1 h 0.3 0.3 0.3 l 0.3,-0.1 h 0.3 0.3 0.3 0.3 0.3 0.3 0.3 0.3 0.4 0.3 0.3 0.3 0.3 0.3 l 0.3,0.1 h 0.3 0.3 0.3 l 0.3,0.1 h 0.3 0.3 l 0.4,0.1 h 0.3 0.3 l 0.3,0.1 h 0.3 l 0.3,0.1 h 0.3 l 0.3,0.1 0.3,0.1 h 0.3 l 0.3,0.1 h 0.3 l 0.3,0.1 0.4,0.1 h 0.3 l 0.3,0.1 0.3,0.1 0.3,0.1 0.3,0.1 h 0.3 l 0.3,0.1 0.3,0.1 0.3,0.1 0.3,0.1 0.3,0.1 0.3,0.1 0.4,0.1 0.3,0.1 0.3,0.1 0.3,0.1 0.3,0.1 0.3,0.1 0.3,0.2 0.3,0.1 0.3,0.1 0.3,0.1 0.3,0.1 0.3,0.2 0.3,0.1 0.4,0.1 0.3,0.2 0.3,0.1 0.3,0.1 0.3,0.2 0.3,0.1 0.3,0.2 0.3,0.1 0.3,0.2 0.3,0.1 0.3,0.2 0.3,0.1 0.3,0.2 0.4,0.2 0.3,0.1 0.3,0.2 0.3,0.2 0.3,0.1 0.3,0.2 0.3,0.2 0.3,0.2 0.3,0.2 0.3,0.1 0.3,0.2 0.3,0.2 0.3,0.2 0.4,0.2 0.3,0.2 0.3,0.2 0.3,0.2 0.3,0.2 0.3,0.2 0.3,0.2 0.3,0.2 0.3,0.2 0.3,0.2 0.3,0.2 0.3,0.3 0.3,0.2 0.4,0.2 0.3,0.2 0.3,0.2 0.3,0.3 0.3,0.2 0.3,0.2 0.3,0.3 0.3,0.2 0.3,0.2 0.3,0.3 0.3,0.2 0.3,0.3 0.3,0.2 0.4,0.3 0.3,0.2 0.3,0.3 0.3,0.2 0.3,0.3 0.3,0.2 0.3,0.3 0.3,0.2 0.3,0.3 0.3,0.3 0.3,0.2 0.3,0.3 0.3,0.3 0.4,0.2 0.3,0.3 0.3,0.3 0.3,0.3 0.3,0.3 0.3,0.2 0.3,0.3 0.3,0.3 0.3,0.3 0.3,0.3 0.3,0.3 0.3,0.3 0.3,0.3 0.3,0.3 0.4,0.2 0.3,0.3 0.3,0.3 0.3,0.4 0.3,0.3 0.3,0.3 0.3,0.3 0.3,0.3 0.3,0.3 0.3,0.3 0.3,0.3 0.3,0.3 0.3,0.3 0.4,0.4 0.3,0.3 0.3,0.3 0.3,0.3 0.3,0.4 0.3,0.3 0.3,0.3 0.3,0.3 0.3,0.4 0.3,0.3 0.3,0.3 0.3,0.4 0.3,0.3 0.4,0.3 0.3,0.4 0.3,0.3 0.3,0.4 0.3,0.3 0.3,0.3 0.3,0.4 0.3,0.3 0.3,0.4 0.3,0.3 0.3,0.4 0.3,0.3 0.3,0.4 0.4,0.3 0.3,0.4 0.3,0.4 0.3,0.3 0.3,0.4 0.3,0.3 0.3,0.4 0.3,0.4 0.3,0.3 0.3,0.4 0.3,0.3 0.3,0.4 0.3,0.4 0.4,0.3 0.3,0.4 0.3,0.4 0.3,0.4 0.3,0.3 0.3,0.4 0.3,0.4 0.3,0.4 0.3,0.3 0.3,0.4 0.3,0.4 0.3,0.4 0.3,0.3 0.4,0.4 0.3,0.4 0.3,0.4 0.3,0.4 0.3,0.3 0.3,0.4 0.3,0.4 0.3,0.4 0.3,0.4 0.3,0.4 0.3,0.4 0.3,0.4 0.3,0.3 0.4,0.4 0.3,0.4 0.3,0.4 0.3,0.4 0.3,0.4 0.3,0.4 0.3,0.4 0.3,0.4 0.3,0.4 0.3,0.4 0.3,0.4 0.3,0.4 0.3,0.4 0.4,0.3 0.3,0.4 0.3,0.4 0.3,0.4 0.3,0.4 0.3,0.4 0.3,0.4 0.3,0.4 0.3,0.4 0.3,0.4 0.3,0.4 0.3,0.4 0.3,0.4 0.4,0.4 0.3,0.4 0.3,0.4 0.3,0.4 0.3,0.4 0.3,0.4 0.3,0.4 0.3,0.4 0.3,0.4 0.3,0.4 0.3,0.4 0.3,0.4 0.3,0.4 0.4,0.4 0.3,0.5 0.3,0.4 0.3,0.4 0.3,0.4 0.3,0.4 0.3,0.4 0.3,0.4 0.3,0.4 0.3,0.4 0.3,0.4 0.3,0.4 0.3,0.4 0.3,0.4 0.4,0.4 0.3,0.4 0.3,0.4 0.3,0.4 0.3,0.4 0.3,0.4 0.3,0.4 0.3,0.4 0.3,0.4 0.3,0.4 0.3,0.4 0.3,0.4 0.3,0.4 0.4,0.3 0.3,0.4 0.3,0.4 0.3,0.4 0.3,0.4 0.3,0.4 0.3,0.4 0.3,0.4 0.3,0.4 0.3,0.4 0.3,0.4 0.3,0.4 0.3,0.4 0.4,0.4 0.3,0.3 0.3,0.4 0.3,0.4 0.3,0.4 0.3,0.4 0.3,0.4 0.3,0.4 0.3,0.4 0.3,0.3 0.3,0.4 0.3,0.4 0.3,0.4 0.4,0.4 0.3,0.3 0.3,0.4 0.3,0.4 0.3,0.4 0.3,0.3 0.3,0.4 0.3,0.4 0.3,0.4 0.3,0.3 0.3,0.4 0.3,0.4 0.3,0.4 0.4,0.3 0.3,0.4 0.3,0.4 0.3,0.3 0.3,0.4 0.3,0.3 0.3,0.4 0.3,0.4 0.3,0.3 0.3,0.4 0.3,0.3 0.3,0.4 0.3,0.4 0.4,0.3 0.3,0.4 0.3,0.3 0.3,0.4 0.3,0.3 0.3,0.4 0.3,0.3 0.3,0.4 0.3,0.3 0.3,0.3 0.3,0.4 0.3,0.3 0.3,0.4 0.4,0.3 0.3,0.3 0.3,0.4 0.3,0.3 0.3,0.3 0.3,0.4 0.3,0.3 0.3,0.3 0.3,0.3 0.3,0.4 0.3,0.3 0.3,0.3 0.3,0.3 0.4,0.4 0.3,0.3 0.3,0.3 0.3,0.3 0.3,0.3 0.3,0.3 0.3,0.3 0.3,0.3 0.3,0.3 0.3,0.3 0.3,0.4 0.3,0.3 0.3,0.3 0.4,0.2 0.3,0.3 0.3,0.3 0.3,0.3 0.3,0.3 0.3,0.3 0.3,0.3 0.3,0.3 0.3,0.3 0.3,0.2 0.3,0.3 0.3,0.3 0.3,0.3 0.3,0.3 0.4,0.2 0.3,0.3 0.3,0.3 0.3,0.2 0.3,0.3 0.3,0.3 0.3,0.2 0.3,0.3 0.3,0.2 0.3,0.3 0.3,0.2 0.3,0.3 0.3,0.2 0.4,0.3 0.3,0.2 0.3,0.3 0.3,0.2 0.3,0.3 0.3,0.2 0.3,0.2 0.3,0.3 0.3,0.2 0.3,0.2 0.3,0.3 0.3,0.2 0.3,0.2 0.4,0.2 0.3,0.2 0.3,0.3 0.3,0.2 0.3,0.2 0.3,0.2 0.3,0.2 0.3,0.2 0.3,0.2 0.3,0.2 0.3,0.2 0.3,0.2 0.3,0.2 0.4,0.2 0.3,0.2 0.3,0.2 0.3,0.2 0.3,0.1 0.3,0.2 0.3,0.2 0.3,0.2 0.3,0.2 0.3,0.1 0.3,0.2 0.3,0.2 0.3,0.1 0.4,0.2 0.3,0.2 0.3,0.1 0.3,0.2 0.3,0.1 0.3,0.2 0.3,0.1 0.3,0.2 0.3,0.1 0.3,0.2 0.3,0.1 0.3,0.1 0.3,0.2 0.4,0.1 0.3,0.1 0.3,0.2 0.3,0.1 0.3,0.1 0.3,0.1 0.3,0.1 0.3,0.2 0.3,0.1 0.3,0.1 0.3,0.1 0.3,0.1 0.3,0.1 0.4,0.1 0.3,0.1 0.3,0.1 0.3,0.1 0.3,0.1 0.3,0.1 0.3,0.1 h 0.3 l 0.3,0.1 0.3,0.1 0.3,0.1 0.3,0.1 h 0.3 l 0.4,0.1 0.3,0.1 h 0.3 l 0.3,0.1 h 0.3 l 0.3,0.1 0.3,0.1 h 0.3 l 0.3,0.1 h 0.3 l 0.3,0.1 h 0.3 0.3 l 0.4,0.1 h 0.3 0.3 l 0.3,0.1 h 0.3 0.3 0.3 l 0.3,0.1 h 0.3 0.3 0.3 0.3 0.3 0.4 0.3 0.3 0.3 0.3 0.3 0.3 0.3 0.3 l 0.3,-0.1 h 0.3 0.3 0.3 l 0.3,-0.1 h 0.4 0.3 l 0.3,-0.1 h 0.3 0.3 l 0.3,-0.1 h 0.3 l 0.3,-0.1 h 0.3 l 0.3,-0.1 0.3,-0.1 h 0.3 l 0.3,-0.1 h 0.4 l 0.3,-0.1 0.3,-0.1 h 0.3 l 0.3,-0.1 0.3,-0.1 0.3,-0.1 0.3,-0.1 h 0.3 l 0.3,-0.1 0.3,-0.1 0.3,-0.1 0.3,-0.1 0.4,-0.1 0.3,-0.1 0.3,-0.1 0.3,-0.1 0.3,-0.1 0.3,-0.1 0.3,-0.1 0.3,-0.1 0.3,-0.2 0.3,-0.1 0.3,-0.1 0.3,-0.1 0.3,-0.1 0.4,-0.2 0.3,-0.1 0.3,-0.1 0.3,-0.2 0.3,-0.1 0.3,-0.1 0.3,-0.2 0.3,-0.1 0.3,-0.2 0.3,-0.1 0.3,-0.2 0.3,-0.1 0.3,-0.2 0.4,-0.1 0.3,-0.2 0.3,-0.2 0.3,-0.1 0.3,-0.2 0.3,-0.2 0.3,-0.1 0.3,-0.2 0.3,-0.2 0.3,-0.2 0.3,-0.2 0.3,-0.1 0.3,-0.2 0.4,-0.2 0.3,-0.2 0.3,-0.2 0.3,-0.2 0.3,-0.2 0.3,-0.2 0.3,-0.2 0.3,-0.2 0.3,-0.2 0.3,-0.2 0.3,-0.2 0.3,-0.2 0.3,-0.2 0.4,-0.3 0.3,-0.2 0.3,-0.2 0.3,-0.2 0.3,-0.2 0.3,-0.3 0.3,-0.2 0.3,-0.2 0.3,-0.3 0.3,-0.2 0.3,-0.2 0.3,-0.3 0.3,-0.2 0.4,-0.3 0.3,-0.2 0.3,-0.3 0.3,-0.2 0.3,-0.3 0.3,-0.2 0.3,-0.3 0.3,-0.2 0.3,-0.3 0.3,-0.2 0.3,-0.3 0.3,-0.3 0.3,-0.2 0.4,-0.3 0.3,-0.3 0.3,-0.2 0.3,-0.3 0.3,-0.3 0.3,-0.3 0.3,-0.3 0.3,-0.2 0.3,-0.3 0.3,-0.3 0.3,-0.3 0.3,-0.3 0.3,-0.3 0.4,-0.3 0.3,-0.3 0.3,-0.3 0.3,-0.2 0.3,-0.3 0.3,-0.3 0.3,-0.4 0.3,-0.3 0.3,-0.3 0.3,-0.3 0.3,-0.3 0.3,-0.3 0.3,-0.3 0.3,-0.3 0.4,-0.3 0.3,-0.3 0.3,-0.4 0.3,-0.3 0.3,-0.3 0.3,-0.3 0.3,-0.4 0.3,-0.3 0.3,-0.3 0.3,-0.3 0.3,-0.4 0.3,-0.3 0.3,-0.3 0.4,-0.4 0.3,-0.3 0.3,-0.3 0.3,-0.4 0.3,-0.3 0.3,-0.4 0.3,-0.3 0.3,-0.3 0.3,-0.4 0.3,-0.3 0.3,-0.4 0.3,-0.3 0.3,-0.4 0.4,-0.3 0.3,-0.4 0.3,-0.3 0.3,-0.4 0.3,-0.4 0.3,-0.3 0.3,-0.4 0.3,-0.3 0.3,-0.4 0.3,-0.4 0.3,-0.3 0.3,-0.4 0.3,-0.3 0.4,-0.4 0.3,-0.4 0.3,-0.3 0.3,-0.4 0.3,-0.4 0.3,-0.4 0.3,-0.3 0.3,-0.4 0.3,-0.4 0.3,-0.4 0.3,-0.3 0.3,-0.4 0.3,-0.4 0.4,-0.4 0.3,-0.3 0.3,-0.4 0.3,-0.4 0.3,-0.4 0.3,-0.4 0.3,-0.3 0.3,-0.4 0.3,-0.4 0.3,-0.4 0.3,-0.4 0.3,-0.4 0.3,-0.4 0.4,-0.4 0.3,-0.3 0.3,-0.4 0.3,-0.4 0.3,-0.4 0.3,-0.4 0.3,-0.4 0.3,-0.4 0.3,-0.4 0.3,-0.4 0.3,-0.4 0.3,-0.4 0.3,-0.4 0.4,-0.4 0.3,-0.4 0.3,-0.3 0.3,-0.4 0.3,-0.4 0.3,-0.4 0.3,-0.4 0.3,-0.4 0.3,-0.4 0.3,-0.4 0.3,-0.4 0.3,-0.4 0.3,-0.4 0.4,-0.4 0.3,-0.4 0.3,-0.4 0.3,-0.4 0.3,-0.4 0.3,-0.4 0.3,-0.4 0.3,-0.4 0.3,-0.4 0.3,-0.4 0.3,-0.4 0.3,-0.4 0.3,-0.4 0.4,-0.4 0.3,-0.4 0.3,-0.4 0.3,-0.5 0.3,-0.4 0.3,-0.4 0.3,-0.4 0.3,-0.4 0.3,-0.4 0.3,-0.4 0.3,-0.4 0.3,-0.4 0.3,-0.4 0.4,-0.4 0.3,-0.4 0.3,-0.4 0.3,-0.4 0.3,-0.4 0.3,-0.4 0.3,-0.4 0.3,-0.4 0.3,-0.4 0.3,-0.4 0.3,-0.4 0.3,-0.4 0.3,-0.4 0.3,-0.4 0.4,-0.4 0.3,-0.4 0.3,-0.3 0.3,-0.4 0.3,-0.4 0.3,-0.4 0.3,-0.4 0.3,-0.4 0.3,-0.4 0.3,-0.4 0.3,-0.4 0.3,-0.4 0.3,-0.4 0.4,-0.4 0.3,-0.4 0.3,-0.4 0.3,-0.3 0.3,-0.4 0.3,-0.4 0.3,-0.4 0.3,-0.4 0.3,-0.4 0.3,-0.4 0.3,-0.4 0.3,-0.3 0.3,-0.4 0.4,-0.4 0.3,-0.4 0.3,-0.4 0.3,-0.3 0.3,-0.4 0.3,-0.4 0.3,-0.4 0.3,-0.3 0.3,-0.4 0.3,-0.4 0.3,-0.4 0.3,-0.3 0.3,-0.4 0.4,-0.4 0.3,-0.4 0.3,-0.3 0.3,-0.4 0.3,-0.4 0.3,-0.3 0.3,-0.4 0.3,-0.3 0.3,-0.4 0.3,-0.4 0.3,-0.3 0.3,-0.4 0.3,-0.3 0.4,-0.4 0.3,-0.4 0.3,-0.3 0.3,-0.4 0.3,-0.3 0.3,-0.4 0.3,-0.3 0.3,-0.4 0.3,-0.3 0.3,-0.4 0.3,-0.3 0.3,-0.3 0.3,-0.4 0.4,-0.3 0.3,-0.4 0.3,-0.3 0.3,-0.3 0.3,-0.4 0.3,-0.3 0.3,-0.3 0.3,-0.4 0.3,-0.3 0.3,-0.3 0.3,-0.3 0.3,-0.4 0.3,-0.3 0.4,-0.3 0.3,-0.3 0.3,-0.4 0.3,-0.3 0.3,-0.3 0.3,-0.3 0.3,-0.3 0.3,-0.3 0.3,-0.3 0.3,-0.3 0.3,-0.3 0.3,-0.3 0.3,-0.4 0.4,-0.3 0.3,-0.3 0.3,-0.2 0.3,-0.3 0.3,-0.3 0.3,-0.3 0.3,-0.3 0.3,-0.3 0.3,-0.3 0.3,-0.3 0.3,-0.3 0.3,-0.2 0.3,-0.3 0.4,-0.3 0.3,-0.3 0.3,-0.3 0.3,-0.2 0.3,-0.3 0.3,-0.3 0.3,-0.2 0.3,-0.3 0.3,-0.3 0.3,-0.2 0.3,-0.3 0.3,-0.2 0.3,-0.3 0.4,-0.2 0.3,-0.3 0.3,-0.2 0.3,-0.3 0.3,-0.2 0.3,-0.3 0.3,-0.2 0.3,-0.3 0.3,-0.2 0.3,-0.2 0.3,-0.3 0.3,-0.2 0.3,-0.2 0.3,-0.3 0.4,-0.2 0.3,-0.2 0.3,-0.2 0.3,-0.2 0.3,-0.3 0.3,-0.2 0.3,-0.2 0.3,-0.2 0.3,-0.2 0.3,-0.2 0.3,-0.2 0.3,-0.2 0.3,-0.2 0.4,-0.2 0.3,-0.2 0.3,-0.2 0.3,-0.2 0.3,-0.2 0.3,-0.2 0.3,-0.1 0.3,-0.2 0.3,-0.2 0.3,-0.2 0.3,-0.2 0.3,-0.1 0.3,-0.2 0.4,-0.2 0.3,-0.1 0.3,-0.2 0.3,-0.2 0.3,-0.1 0.3,-0.2 0.3,-0.1 0.3,-0.2 0.3,-0.1 0.3,-0.2 0.3,-0.1 0.3,-0.2 0.3,-0.1 0.4,-0.1 0.3,-0.2 0.3,-0.1 0.3,-0.1 0.3,-0.2 0.3,-0.1 0.3,-0.1 0.3,-0.1 0.3,-0.1 0.3,-0.2 0.3,-0.1 0.3,-0.1 0.3,-0.1 0.4,-0.1 0.3,-0.1 0.3,-0.1 0.3,-0.1 0.3,-0.1 0.3,-0.1 0.3,-0.1 0.3,-0.1 0.3,-0.1 h 0.3 l 0.3,-0.1 0.3,-0.1 0.3,-0.1 0.4,-0.1 h 0.3 l 0.3,-0.1 0.3,-0.1 h 0.3 l 0.3,-0.1 h 0.3 l 0.3,-0.1 0.3,-0.1 h 0.3 l 0.3,-0.1 h 0.3 l 0.3,-0.1 h 0.4 0.3 l 0.3,-0.1 h 0.3 0.3 l 0.3,-0.1 h 0.3 0.3 0.3 l 0.3,-0.1 h 0.3 0.3 0.3 0.4 0.3 0.3 0.3 0.3 0.3 0.3 0.3 0.3 0.3 0.3 l 0.3,0.1 h 0.3 0.4 0.3 l 0.3,0.1 h 0.3 0.3 l 0.3,0.1 h 0.3 0.3 l 0.3,0.1 h 0.3 l 0.3,0.1 h 0.3 l 0.3,0.1 0.4,0.1 h 0.3 l 0.3,0.1 h 0.3 l 0.3,0.1 0.3,0.1 h 0.3 l 0.3,0.1 0.3,0.1 0.3,0.1 0.3,0.1 h 0.3 l 0.3,0.1 0.3,0.1 0.4,0.1 0.3,0.1 0.3,0.1 0.3,0.1 0.3,0.1 0.3,0.1 0.3,0.1 0.3,0.1 0.3,0.1 0.3,0.1 0.3,0.2 0.3,0.1 0.3,0.1 0.4,0.1 0.3,0.1 0.3,0.2 0.3,0.1 0.3,0.1 0.3,0.2 0.3,0.1 0.3,0.1 0.3,0.2 0.3,0.1 0.3,0.2 0.3,0.1 0.3,0.2 0.4,0.1 0.3,0.2 0.3,0.1 0.3,0.2 0.3,0.2 0.3,0.1 0.3,0.2 0.3,0.2 0.3,0.1 0.3,0.2 0.3,0.2 0.3,0.2 0.3,0.2 0.4,0.1 0.3,0.2 0.3,0.2 0.3,0.2 0.3,0.2 0.3,0.2 0.3,0.2 0.3,0.2 0.3,0.2 0.3,0.2 0.3,0.2 0.3,0.2 0.3,0.2 0.4,0.2 0.3,0.2 0.3,0.3 0.3,0.2 0.3,0.2 0.3,0.2 0.3,0.2 0.3,0.3 0.3,0.2 0.3,0.2 0.3,0.3 0.3,0.2 0.3,0.2 0.4,0.3 0.3,0.2 0.3,0.3 0.3,0.2 0.3,0.3 0.3,0.2 0.3,0.3 0.3,0.2 0.3,0.3 0.3,0.2 0.3,0.3 0.3,0.2 0.3,0.3 0.4,0.3 0.3,0.2 0.3,0.3 0.3,0.3 0.3,0.2 0.3,0.3 0.3,0.3 0.3,0.3 0.3,0.3 0.3,0.2 0.3,0.3 0.3,0.3 0.3,0.3 0.4,0.3 0.3,0.3 0.3,0.3 0.3,0.3 0.3,0.3 0.3,0.2 0.3,0.3 0.3,0.3 0.3,0.4 0.3,0.3 0.3,0.3 0.3,0.3 0.3,0.3 0.4,0.3 0.3,0.3 0.3,0.3 0.3,0.3 0.3,0.3 0.3,0.4 0.3,0.3 0.3,0.3 0.3,0.3 0.3,0.4 0.3,0.3 0.3,0.3 0.3,0.3 0.4,0.4 0.3,0.3 0.3,0.3 0.3,0.4 0.3,0.3 0.3,0.3 0.3,0.4 0.3,0.3 0.3,0.4 0.3,0.3 0.3,0.3 0.3,0.4 0.3,0.3 0.3,0.4 0.4,0.3 0.3,0.4 0.3,0.3 0.3,0.4 0.3,0.3 0.3,0.4 0.3,0.4 0.3,0.3 0.3,0.4 0.3,0.3 0.3,0.4 0.3,0.4 0.3,0.3 0.4,0.4 0.3,0.3 0.3,0.4 0.3,0.4 0.3,0.3 0.3,0.4 0.3,0.4 0.3,0.4 0.3,0.3 0.3,0.4 0.3,0.4 0.3,0.4 0.3,0.3 0.4,0.4 0.3,0.4 0.3,0.4 0.3,0.3 0.3,0.4 0.3,0.4 0.3,0.4 0.3,0.4 0.3,0.3 0.3,0.4 0.3,0.4 0.3,0.4 0.3,0.4 0.4,0.4 0.3,0.4 0.3,0.4 0.3,0.3 0.3,0.4 0.3,0.4 0.3,0.4 0.3,0.4 0.3,0.4 0.3,0.4 0.3,0.4 0.3,0.4 0.3,0.4 0.4,0.4 0.3,0.4 0.3,0.4 0.3,0.4 0.3,0.3 0.3,0.4 0.3,0.4 0.3,0.4 0.3,0.4 0.3,0.4 0.3,0.4 0.3,0.4 0.3,0.4 0.4,0.4 0.3,0.4 0.3,0.4 0.3,0.4 0.3,0.4 0.3,0.4 0.3,0.4 0.3,0.4 0.3,0.4 0.3,0.4 0.3,0.4 0.3,0.4 0.3,0.4 0.4,0.4 0.3,0.4 0.3,0.4 0.3,0.4 0.3,0.4 0.3,0.5 0.3,0.4 0.3,0.4 0.3,0.4 0.3,0.4 0.3,0.4 0.3,0.4 0.3,0.4 0.4,0.4 0.3,0.4 0.3,0.4 0.3,0.4 0.3,0.4 0.3,0.4 0.3,0.4 0.3,0.4 0.3,0.4 0.3,0.4 0.3,0.4 0.3,0.4 0.3,0.4 0.4,0.4 0.3,0.4 0.3,0.4 0.3,0.4 0.3,0.4 0.3,0.3 0.3,0.4 0.3,0.4 0.3,0.4 0.3,0.4 0.3,0.4 0.3,0.4 0.3,0.4 0.4,0.4 0.3,0.4 0.3,0.4 0.3,0.4 0.3,0.4 0.3,0.4 0.3,0.3 0.3,0.4 0.3,0.4 0.3,0.4 0.3,0.4 0.3,0.4 0.3,0.4 0.3,0.4 0.4,0.3 0.3,0.4 0.3,0.4 0.3,0.4 0.3,0.4 0.3,0.3 0.3,0.4 0.3,0.4 0.3,0.4 0.3,0.3 0.3,0.4 0.3,0.4 0.3,0.4 0.4,0.3 0.3,0.4 0.3,0.4 0.3,0.4 0.3,0.3 0.3,0.4 0.3,0.4 0.3,0.3 0.3,0.4 0.3,0.3 0.3,0.4 0.3,0.4 0.3,0.3 0.4,0.4 0.3,0.3 0.3,0.4 0.3,0.4 0.3,0.3 0.3,0.4 0.3,0.3 0.3,0.4 0.3,0.3 0.3,0.4 0.3,0.3 0.3,0.4 0.3,0.3 0.4,0.3 0.3,0.4 0.3,0.3 0.3,0.4 0.3,0.3 0.3,0.3 0.3,0.4 0.3,0.3 0.3,0.3 0.3,0.4 0.3,0.3 0.3,0.3 0.3,0.3 0.4,0.4 0.3,0.3 0.3,0.3 0.3,0.3 0.3,0.4 0.3,0.3 0.3,0.3 0.3,0.3 0.3,0.3 0.3,0.3 0.3,0.3 0.3,0.3 0.3,0.3 0.4,0.3 0.3,0.4 0.3,0.3 0.3,0.3 0.3,0.2 0.3,0.3 0.3,0.3 0.3,0.3 0.3,0.3 0.3,0.3 0.3,0.3 0.3,0.3 0.3,0.3 0.4,0.2 0.3,0.3 0.3,0.3 0.3,0.3 0.3,0.3 0.3,0.2 0.3,0.3 0.3,0.3 0.3,0.2 0.3,0.3 0.3,0.3 0.3,0.2 0.3,0.3 0.4,0.2 0.3,0.3 0.3,0.2 0.3,0.3 0.3,0.2 0.3,0.3 0.3,0.2 0.3,0.3 0.3,0.2 0.3,0.3 0.3,0.2 0.3,0.2 0.3,0.3 0.4,0.2 0.3,0.2 0.3,0.3 0.3,0.2 0.3,0.2 0.3,0.2 0.3,0.2 0.3,0.3 0.3,0.2 0.3,0.2 0.3,0.2 0.3,0.2 0.3,0.2 0.4,0.2 0.3,0.2 0.3,0.2 0.3,0.2 0.3,0.2 0.3,0.2 0.3,0.2 0.3,0.2 0.3,0.2 0.3,0.1 0.3,0.2 0.3,0.2 0.3,0.2 0.3,0.2 0.4,0.1 0.3,0.2 0.3,0.2 0.3,0.1 0.3,0.2 0.3,0.2 0.3,0.1 0.3,0.2 0.3,0.1 0.3,0.2 0.3,0.1 0.3,0.2 0.3,0.1 0.4,0.2 0.3,0.1 0.3,0.1 0.3,0.2 0.3,0.1 0.3,0.1 0.3,0.2 0.3,0.1 0.3,0.1 0.3,0.1 0.3,0.1 0.3,0.2 0.3,0.1 0.4,0.1 0.3,0.1 0.3,0.1 0.3,0.1 0.3,0.1 0.3,0.1 0.3,0.1 0.3,0.1 0.3,0.1 0.3,0.1 0.3,0.1 h 0.3 l 0.3,0.1 0.4,0.1 0.3,0.1 0.3,0.1 h 0.3 l 0.3,0.1 0.3,0.1 h 0.3 l 0.3,0.1 h 0.3 l 0.3,0.1 0.3,0.1 h 0.3 l 0.3,0.1 h 0.4 l 0.3,0.1 h 0.3 0.3 l 0.3,0.1 h 0.3 0.3 l 0.3,0.1 h 0.3 0.3 0.3 l 0.3,0.1 h 0.3 0.4 0.3 0.3 0.3 0.3 0.3 0.3 0.3 0.3 0.3 0.3 0.3 0.3 l 0.4,-0.1 h 0.3 0.3 0.3 l 0.3,-0.1 h 0.3 0.3 l 0.3,-0.1 h 0.3 0.3 l 0.3,-0.1 h 0.3 l 0.3,-0.1 h 0.4 l 0.3,-0.1 0.3,-0.1 h 0.3 l 0.3,-0.1 h 0.3 l 0.3,-0.1 0.3,-0.1 h 0.3 l 0.3,-0.1 0.3,-0.1 0.3,-0.1 0.3,-0.1 h 0.4 l 0.3,-0.1 0.3,-0.1 0.3,-0.1 0.3,-0.1 0.3,-0.1 0.3,-0.1 0.3,-0.1 0.3,-0.1 0.3,-0.1 0.3,-0.1 0.3,-0.1 0.3,-0.1 0.4,-0.2 0.3,-0.1 0.3,-0.1 0.3,-0.1 0.3,-0.1 0.3,-0.2 0.3,-0.1 0.3,-0.1 0.3,-0.2 0.3,-0.1 0.3,-0.1 0.3,-0.2 0.3,-0.1 0.3,-0.2 0.4,-0.1 0.3,-0.2 0.3,-0.1 0.3,-0.2 0.3,-0.1 0.3,-0.2 0.3,-0.2 0.3,-0.1 0.3,-0.2 0.3,-0.2 0.3,-0.1 0.3,-0.2 0.3,-0.2 0.4,-0.2 0.3,-0.2 0.3,-0.1 0.3,-0.2 0.3,-0.2 0.3,-0.2 0.3,-0.2 0.3,-0.2 0.3,-0.2 0.3,-0.2 0.3,-0.2 0.3,-0.2 0.3,-0.2 0.4,-0.2 0.3,-0.2 0.3,-0.2 0.3,-0.2 0.3,-0.3 0.3,-0.2 0.3,-0.2 0.3,-0.2 0.3,-0.2 0.3,-0.3 0.3,-0.2 0.3,-0.2 0.3,-0.3 0.4,-0.2 0.3,-0.2 0.3,-0.3 0.3,-0.2 0.3,-0.3 0.3,-0.2 0.3,-0.3 0.3,-0.2 0.3,-0.3 0.3,-0.2 0.3,-0.3 0.3,-0.2 0.3,-0.3 0.4,-0.2 0.3,-0.3 0.3,-0.3 0.3,-0.2 0.3,-0.3 0.3,-0.3 0.3,-0.2 0.3,-0.3 0.3,-0.3 0.3,-0.3 0.3,-0.3 0.3,-0.2 0.3,-0.3 0.4,-0.3 0.3,-0.3 0.3,-0.3 0.3,-0.3 0.3,-0.3 0.3,-0.3 0.3,-0.3 0.3,-0.2 0.3,-0.3 0.3,-0.3 0.3,-0.4 0.3,-0.3 0.3,-0.3 0.4,-0.3 0.3,-0.3 0.3,-0.3 0.3,-0.3 0.3,-0.3 0.3,-0.3 0.3,-0.3 0.3,-0.4 0.3,-0.3 0.3,-0.3 0.3,-0.3 0.3,-0.4 0.3,-0.3 0.4,-0.3 0.3,-0.3 0.3,-0.4 0.3,-0.3 0.3,-0.3 0.3,-0.4 0.3,-0.3 0.3,-0.3 0.3,-0.4 0.3,-0.3 0.3,-0.4 0.3,-0.3 0.3,-0.3 0.4,-0.4 0.3,-0.3 0.3,-0.4 0.3,-0.3 0.3,-0.4 0.3,-0.3 0.3,-0.4 0.3,-0.3 0.3,-0.4 0.3,-0.4 0.3,-0.3 0.3,-0.4 0.3,-0.3 0.4,-0.4 0.3,-0.4 0.3,-0.3 0.3,-0.4 0.3,-0.3 0.3,-0.4 0.3,-0.4 0.3,-0.3 0.3,-0.4 0.3,-0.4 0.3,-0.4 0.3,-0.3 0.3,-0.4 0.3,-0.4 0.4,-0.4 0.3,-0.3 0.3,-0.4 0.3,-0.4 0.3,-0.4 0.3,-0.3 0.3,-0.4 0.3,-0.4 0.3,-0.4 0.3,-0.4 0.3,-0.3 0.3,-0.4 0.3,-0.4 0.4,-0.4 0.3,-0.4 0.3,-0.4 0.3,-0.4 0.3,-0.4 0.3,-0.3 0.3,-0.4 0.3,-0.4 0.3,-0.4 0.3,-0.4 0.3,-0.4 0.3,-0.4 0.3,-0.4 0.4,-0.4 0.3,-0.4 0.3,-0.4 0.3,-0.4 0.3,-0.4 0.3,-0.4 0.3,-0.3 0.3,-0.4 0.3,-0.4 0.3,-0.4 0.3,-0.4 0.3,-0.4 0.3,-0.4 0.4,-0.4 0.3,-0.4 0.3,-0.4 0.3,-0.4 0.3,-0.4 0.3,-0.4 0.3,-0.4 0.3,-0.4 0.3,-0.4 0.3,-0.4 0.3,-0.4 0.3,-0.4 0.3,-0.4 0.4,-0.4 0.3,-0.4 0.3,-0.4 0.3,-0.4 0.3,-0.4 0.3,-0.4 0.3,-0.4"
           id="path202"
           style="stroke-width:5;stroke-miterlimit:4;stroke-dasharray:none;stroke:#96a339;stroke-opacity:1" />
      </g>
    </g>
    <g
       fill="none"
       color="#000000"
       stroke="currentColor"
       stroke-width="2"
       stroke-linecap="butt"
       stroke-linejoin="miter"
       id="g207"
       transform="translate(-21.856754,0.5603083)" />
    <g
       fill="none"
       color="#000000"
       stroke="#000000"
       stroke-width="1"
       stroke-linecap="butt"
       stroke-linejoin="miter"
       id="g209"
       transform="translate(-21.856754,0.5603083)" />
    <g
       fill="none"
       color="#000000"
       stroke="currentColor"
       stroke-width="1"
       stroke-linecap="butt"
       stroke-linejoin="miter"
       id="g215"
       transform="translate(-21.856754,0.5603083)" />
  </g>
</svg>
