<svg xmlns="http://www.w3.org/2000/svg" xmlns:xlink="http://www.w3.org/1999/xlink" version="1.1" id="Layer_1" x="0px" y="0px" width="100%" viewBox="0 0 1205 1206" enable-background="new 0 0 1205 1206" xml:space="preserve">

<path fill="#FFB81C" opacity="1.000000" stroke="none" d=" M674.920959,469.914551   C579.162842,474.499359 483.351868,470.511017 387.287079,472.356689   C387.287079,430.303009 387.287079,388.920990 387.287079,347.269165   C544.361755,347.269165 701.373352,347.269165 858.905884,347.269165   C858.905884,357.876068 858.905884,368.471588 858.657349,379.898407   C858.274658,381.710297 858.024414,382.690735 858.023376,383.671448   C858.000000,405.753357 857.991211,427.835358 858.036011,449.917206   C858.038574,451.192841 858.519226,452.467499 858.777405,453.742676   C857.557922,455.262390 856.445312,456.884644 855.101929,458.285461   C845.329895,468.475067 835.459595,478.570740 825.721191,488.792114   C814.319946,500.758850 803.028137,512.829834 791.675110,524.842529   C779.939758,537.259644 768.182678,549.656189 756.444458,562.070618   C744.956177,574.220703 733.457886,586.361572 722.004761,598.544861   C712.583496,608.566895 703.218567,618.641846 693.846313,628.709778   C693.451111,629.134338 693.235657,629.726318 693.514709,629.247009   C708.991516,633.824768 724.566956,637.965149 739.820557,643.067566   C756.920288,648.787537 772.494629,657.764160 786.906738,668.507690   C795.794617,675.133057 804.603760,682.097473 812.329956,690.002563   C832.468079,710.606812 847.742371,734.439209 858.078979,761.495667   C864.466309,778.214661 868.789612,795.430603 871.789551,812.943604   C873.720337,824.215332 874.069458,835.765503 874.970703,847.203186   C875.463745,853.459717 876.190369,859.773621 875.838196,866.006592   C874.835815,883.749878 873.552551,901.484436 871.973450,919.186157   C869.971191,941.632019 864.400635,963.340271 856.938538,984.528748   C850.810974,1001.927612 842.844482,1018.494202 832.968262,1034.139404   C821.959106,1051.579102 809.037048,1067.441772 793.909363,1081.403076   C780.812378,1093.490234 766.422180,1103.857056 750.868530,1112.710083   C735.911438,1121.223511 720.284424,1128.164917 703.813782,1132.758179   C688.700073,1136.973267 673.229492,1140.034790 657.788940,1142.925049   C626.541138,1148.774414 594.864136,1146.548340 563.488464,1145.523193   C535.747498,1144.616943 508.462036,1137.826538 482.501770,1127.598755   C459.291656,1118.454468 437.918945,1105.972900 418.830261,1089.515869   C393.822876,1067.956177 375.094025,1041.948730 361.042267,1012.308716   C350.595062,990.271851 343.023010,967.280457 337.647858,943.507141   C337.027008,940.761292 337.755646,940.354736 339.863129,939.998413   C363.437195,936.012390 387.012939,932.036011 410.579651,928.006897   C431.738068,924.389465 452.879028,920.669678 474.044067,917.091797   C478.070221,916.411194 482.172760,916.182556 485.984833,915.772827   C489.404785,928.132690 491.763702,940.479065 496.258026,951.991943   C502.763184,968.655945 511.212189,984.312805 524.445679,997.114624   C538.913635,1011.110901 555.744812,1019.264404 575.589661,1022.126099   C590.843872,1024.325806 605.939575,1024.083740 620.935425,1020.966370   C629.932007,1019.096191 639.174927,1017.347168 647.543701,1013.761597   C661.250488,1007.889038 673.192871,999.297668 683.199036,987.761475   C701.718018,966.411133 709.708313,940.736694 714.778931,913.891052   C716.870056,902.820496 717.119141,891.386658 717.954712,880.099487   C718.527954,872.356384 719.117432,864.569580 718.916565,856.822571   C718.334106,834.354675 715.010071,812.316772 705.261902,791.823730   C694.458557,769.112488 678.337585,751.126160 656.250061,738.612732   C640.366394,729.614197 623.473633,723.973267 605.359314,721.995850   C598.025085,721.195251 590.668091,720.183350 583.311096,720.090271   C562.744995,719.830200 542.173462,719.999756 521.330505,719.999756   C521.170776,717.305664 521.011963,715.867493 521.011169,714.429199   C520.996277,687.763184 520.928894,661.096680 521.127441,634.432190   C521.144409,632.148132 522.409058,629.353149 524.015930,627.681885   C539.567627,611.506775 555.334778,595.539001 571.002747,579.475342   C581.435242,568.779419 591.803833,558.021179 602.206177,547.295837   C613.192261,535.968689 624.188721,524.651550 635.172668,513.322327   C645.344727,502.830505 655.536926,492.357849 665.654663,481.813812   C668.962585,478.366486 672.065063,474.721924 675.702026,470.724335   C676.303284,469.940643 676.463989,469.600189 676.624695,469.259766   C676.056763,469.478058 675.488892,469.696320 674.920959,469.914551  z"/>
<path fill="#FFB81C" opacity="1.000000" stroke="none" d=" M1133.997192,407.007935   C1129.674927,424.871490 1125.283691,442.291382 1121.064941,459.752930   C1116.272461,479.589813 1111.684570,499.476105 1106.916138,519.318909   C1100.985352,543.998596 1094.965088,568.656982 1088.975098,593.322449   C1084.585938,611.396057 1080.170044,629.463135 1075.789307,647.538818   C1068.854004,676.156433 1061.962158,704.784668 1055.007080,733.397522   C1048.891968,758.554382 1042.642822,783.678711 1036.583252,808.848816   C1028.321777,843.165222 1020.194946,877.513977 1011.981506,911.841980   C1010.738892,917.035461 1009.558105,922.265076 1007.856628,927.312073   C1007.441223,928.544250 1005.099548,929.842834 1003.612000,929.881042   C994.451477,930.116455 985.281799,929.999573 976.115173,929.999573   C950.948547,929.999695 925.781982,929.999756 900.615356,929.999817   C898.812561,929.999817 897.009705,929.999756 894.623047,929.999756   C896.847534,920.315552 898.871582,911.161316 901.058716,902.046204   C907.669861,874.493286 914.355225,846.958191 920.990784,819.411194   C926.149231,797.996277 931.253601,776.568359 936.422485,755.156006   C944.250244,722.728943 952.185669,690.327637 959.936707,657.882324   C965.430664,634.885315 970.614563,611.814331 976.083679,588.811218   C982.978699,559.810669 990.023499,530.845764 997.002563,501.865173   C1001.474182,483.296722 1005.929382,464.724304 1010.417542,446.159912   C1018.254578,413.743561 1026.184937,381.349518 1033.934692,348.912354   C1039.431030,325.906677 1044.610962,302.825470 1050.083740,279.814026   C1056.975830,250.834152 1064.010864,221.888214 1071.007080,192.933136   C1075.531860,174.206055 1080.122437,155.494797 1084.630615,136.763702   C1086.185303,130.304291 1087.579834,123.806343 1089.078491,117.189392   C1127.399902,117.189392 1165.522949,117.189392 1203.993896,117.189392   C1201.270020,129.021515 1198.697998,140.659485 1195.902954,152.243622   C1188.987915,180.901901 1181.997314,209.542053 1174.987427,238.177322   C1167.793701,267.563599 1160.466919,296.917511 1153.336182,326.319031   C1147.118286,351.957001 1141.094604,377.642090 1134.973633,403.303619   C1134.709595,404.410706 1134.330078,405.490234 1133.997192,407.007935  z"/>
<path fill="#FFB81C" opacity="1.000000" stroke="none" d=" M144.997101,375.929443   C150.412109,352.811768 155.805771,330.119171 161.238953,307.436005   C168.478027,277.213440 175.731476,246.994308 183.009415,216.781097   C189.191391,191.117584 195.428894,165.467468 201.614456,139.804825   C203.132355,133.507370 204.589676,127.194305 205.978500,120.867264   C206.464493,118.653252 206.891693,116.944176 209.868835,116.950531   C246.685776,117.029106 283.502960,117.001816 321.147156,117.001816   C320.593109,120.050583 320.243896,122.826149 319.574982,125.522392   C312.431458,154.315155 305.159790,183.076309 298.080231,211.884689   C291.749725,237.644897 285.584778,263.445984 279.404175,289.242798   C273.563904,313.619171 267.889587,338.035614 261.971710,362.393005   C256.997955,382.864502 251.728378,403.263885 246.679993,423.717468   C238.762451,455.795380 230.881317,487.882416 223.060989,519.984131   C217.773666,541.688049 212.658493,563.433899 207.392685,585.143066   C199.646484,617.078247 191.804077,648.990051 184.061234,680.926025   C178.796509,702.640747 173.678940,724.391174 168.411636,746.105286   C160.664673,778.041687 152.814026,809.952881 145.063293,841.888367   C140.099289,862.341675 135.216965,882.814819 130.336838,903.288330   C128.497955,911.002991 126.751633,918.739929 124.999191,926.474915   C124.480186,928.765686 123.648750,930.081604 120.786102,930.072205   C85.456711,929.955933 50.126816,929.992188 14.797056,929.974548   C14.322845,929.974304 13.848729,929.785339 12.617227,929.523315   C14.111298,922.539978 15.451546,915.594482 17.093410,908.721069   C23.678038,881.155579 30.368408,853.615295 36.995850,826.059998   C42.410328,803.547729 47.786983,781.026367 53.187504,758.510803   C61.120403,725.437256 69.076393,692.369263 76.990364,659.291199   C82.378502,636.770325 87.679550,614.228577 93.077408,591.710083   C100.022499,562.736938 106.991264,533.769470 114.015785,504.815552   C118.596603,485.934174 123.411011,467.108948 127.910431,448.208466   C133.425415,425.041931 138.717438,401.822357 144.125229,378.630188   C144.307587,377.848083 144.699249,377.114777 144.997101,375.929443  z"/>

<path fill="#000000" opacity="1.000000" stroke="none" d=" M675.113953,470.104675   C675.488892,469.696320 676.056763,469.478058 676.624695,469.259766   C676.463989,469.600189 676.303284,469.940643 675.921875,470.473816   C675.569824,470.542603 675.438416,470.418701 675.113953,470.104675  z"/>
</svg>