<?xml version="1.0" encoding="UTF-8" standalone="no"?>
<svg
   width="14"
   height="14"
   viewBox="0 0 13.999999 14"
   version="1.1"
   id="svg4"
   sodipodi:docname="link.svg"
   inkscape:version="1.1.2 (0a00cf5339, 2022-02-04)"
   xmlns:inkscape="http://www.inkscape.org/namespaces/inkscape"
   xmlns:sodipodi="http://sodipodi.sourceforge.net/DTD/sodipodi-0.dtd"
   xmlns="http://www.w3.org/2000/svg"
   xmlns:svg="http://www.w3.org/2000/svg">
  <defs
     id="defs8" />
  <sodipodi:namedview
     id="namedview6"
     pagecolor="#ffffff"
     bordercolor="#666666"
     borderopacity="1.0"
     inkscape:pageshadow="2"
     inkscape:pageopacity="0.0"
     inkscape:pagecheckerboard="0"
     showgrid="false"
     inkscape:zoom="52.753685"
     inkscape:cx="7.9141391"
     inkscape:cy="8.8619402"
     inkscape:window-width="1850"
     inkscape:window-height="1016"
     inkscape:window-x="70"
     inkscape:window-y="27"
     inkscape:window-maximized="1"
     inkscape:current-layer="svg4"
     units="px" />
  <path
     d="M 10.289474,0 C 9.973684,0.01759984 9.657895,0.05279955 9.359649,0.15839865 8.8859649,0.33439715 8.4298246,0.59839485 8.0438596,0.98559145 A 0.87719298,0.87999239 0 1 0 9.254386,2.199981 C 9.447368,2.0063827 9.675439,1.9007835 9.921053,1.8127843 c 0.614035,-0.2111982 1.368421,-0.123199 1.859649,0.3871967 0.68421,0.6863941 0.68421,1.8303842 0,2.5343781 L 9.149123,7.3743364 C 8.377193,8.1487297 7.745614,8.219129 7.2894737,8.2015291 6.8333333,8.1839294 6.5701754,7.9727312 6.5701754,7.9727312 A 0.88783026,0.89066362 0 1 0 5.6929825,9.5215177 c 0,0 0.5964912,0.3871971 1.4736842,0.4399961 0.8771929,0.0528 2.1052633,-0.281597 3.1754383,-1.3727879 l 2.631579,-2.6399773 c 1.368421,-1.3727882 1.368421,-3.590369 0,-4.9455573 C 12.482456,0.51039555 11.903509,0.21119815 11.27193,0.07039935 10.95614,0 10.605263,0 10.289474,0.01759984 Z M 6.7807018,4.0655649 C 5.9035088,4.0303652 4.6929825,4.3295626 3.6578947,5.3855535 L 1.0263158,8.0255307 c -1.36842107,1.3727881 -1.36842107,3.5903693 0,4.9455573 0.9824561,0.985592 2.3859649,1.267189 3.6140351,0.827193 0.4736842,-0.175999 0.9298245,-0.439996 1.3157895,-0.827193 A 0.87719298,0.87999239 0 1 0 4.745614,11.756699 c -0.1929824,0.193598 -0.4210526,0.299197 -0.6666666,0.387196 -0.6140351,0.211198 -1.3684211,0.123199 -1.8596492,-0.387196 -0.6842105,-0.686394 -0.6842105,-1.8303852 0,-2.5343792 l 2.631579,-2.6399766 c 0.7017544,-0.703994 1.3157895,-0.7919931 1.8070175,-0.7743934 0.4912281,0.0176 0.8245614,0.1583986 0.8245614,0.1583986 A 0.87719298,0.87999239 0 1 0 8.254386,4.4175617 c 0,0 -0.5964913,-0.3519968 -1.4736842,-0.3871966 z"
     style="fill:#859044;fill-opacity:1;stroke-width:1.75718"
     id="path2" />
</svg>
