<svg xmlns="http://www.w3.org/2000/svg" xmlns:xlink="http://www.w3.org/1999/xlink" version="1.1" id="Layer_1" x="0px" y="0px" width="100%" viewBox="0 0 1199 1200" enable-background="new 0 0 1199 1200" xml:space="preserve">

<path fill="#859044" opacity="1.000000" stroke="none" d=" M901.905762,1012.043579   C873.832825,1004.569702 848.141724,992.911133 825.704712,975.000793   C814.615967,966.149231 804.232300,956.340698 794.121094,946.365601   C788.024109,940.350769 783.063232,933.184204 777.197632,926.056091   C777.197632,952.791565 777.197632,979.013428 777.197632,1005.616577   C731.128174,1005.616577 685.403320,1005.616577 639.336243,1005.616577   C639.336243,749.420837 639.336243,493.041138 639.336243,236.329422   C688.608398,236.329422 738.000793,236.329422 787.879883,236.329422   C787.879883,327.640778 787.879883,419.004272 787.879883,511.189301   C792.445618,506.416656 796.266174,502.201874 800.319519,498.224243   C817.725220,481.143097 836.947510,466.478333 858.905701,455.731171   C878.893555,445.948395 899.828369,438.937531 922.149963,437.062042   C934.643127,436.012390 947.245483,434.620789 959.710999,435.216583   C987.691284,436.553955 1014.950562,441.797272 1040.811890,453.279938   C1060.339478,461.950287 1078.230347,472.992126 1094.489258,486.887329   C1120.112427,508.785278 1140.480957,534.647095 1154.642822,565.256165   C1164.507568,586.577698 1171.856201,608.786926 1175.909790,631.942810   C1178.412109,646.238037 1179.987061,660.694763 1182.015503,675.073853   C1185.533936,700.015259 1184.541382,725.138916 1183.686035,750.108459   C1182.747437,777.504272 1179.285522,804.870605 1171.777588,831.334961   C1166.930420,848.420166 1160.493896,865.107239 1153.922852,881.636108   C1146.987549,899.081238 1137.173218,915.191956 1125.342773,929.624207   C1114.709473,942.596191 1102.427979,954.275208 1090.366211,966.002991   C1076.297974,979.681763 1059.665161,989.870544 1042.058472,998.283447   C1023.051636,1007.365356 1003.181885,1014.191833 982.037109,1015.889893   C966.390625,1017.146484 950.626404,1018.219604 934.973633,1017.675964   C924.039185,1017.296143 913.204407,1014.046082 901.905762,1012.043579  M788.466187,680.007507   C787.978271,685.237793 787.135254,690.463135 787.061584,695.699280   C786.657166,724.457214 786.677124,753.193970 791.967346,781.643982   C794.759888,796.662354 798.422668,811.415283 804.776794,825.347168   C813.529419,844.538025 825.826111,861.066040 842.076294,874.675415   C851.436401,882.514465 861.687073,888.689636 873.045654,893.021729   C888.311340,898.843933 904.044800,901.017761 920.448975,900.167053   C933.046448,899.513794 945.101807,897.164062 956.365540,891.815247   C986.791443,877.366943 1006.535828,853.282898 1018.082581,822.009705   C1028.367188,794.155029 1030.894409,765.010803 1031.811768,735.738586   C1032.260376,721.426025 1030.685059,707.050049 1030.025635,692.702820   C1029.182617,674.365540 1026.034546,656.418579 1021.015991,638.773682   C1012.561157,609.047302 996.974670,584.185364 970.796875,567.032043   C943.121277,548.897156 912.714905,545.494202 880.945496,552.598450   C854.327332,558.550781 833.490784,573.996155 817.483032,595.376221   C799.032715,620.018555 791.372314,648.839600 788.466187,680.007507  z"/>
<path fill="#859044" opacity="1.000000" stroke="none" d=" M449.753784,481.253479   C471.376678,498.857574 487.018890,519.945496 491.937958,547.611511   C494.734863,563.341980 497.045258,579.181763 498.881958,595.052490   C500.187897,606.336853 500.844360,617.752197 500.910614,629.114136   C501.132172,667.104248 501.071289,705.097107 500.903351,743.088013   C500.735687,781.024780 499.968414,818.962097 500.152008,856.895874   C500.233368,873.706116 501.311890,890.585693 503.169525,907.296814   C506.362152,936.016602 514.297424,963.559082 526.363281,989.867188   C528.711731,994.987671 530.973206,1000.148010 533.487061,1005.764343   C531.348145,1005.864319 529.904724,1005.990417 528.461365,1005.990723   C482.467102,1006.001648 436.472839,1005.981384 390.478668,1006.045044   C387.561005,1006.049072 385.874329,1005.617371 384.873260,1002.289429   C379.427032,984.183350 373.648438,966.177246 367.964813,948.142822   C367.776978,947.546875 367.381317,947.016296 366.915558,946.141541   C360.718201,951.472656 355.020721,957.132507 348.579346,961.755859   C335.489990,971.150574 322.295471,980.465698 308.597778,988.929077   C291.516998,999.482849 272.832001,1006.639465 253.285217,1011.155396   C242.359512,1013.679565 231.241333,1015.832275 220.092239,1016.808044   C206.899261,1017.962769 193.563339,1018.246460 180.318085,1017.877441   C155.382034,1017.182617 131.200684,1012.415466 107.929947,1003.054810   C83.828941,993.360168 63.581131,978.319092 46.650967,958.953552   C31.482716,941.603516 21.008242,921.599670 14.820707,899.195618   C9.533076,880.049927 7.881079,860.612061 9.189075,841.072998   C11.427372,807.637085 22.446022,777.377441 44.134159,751.239380   C62.055397,729.641113 84.781754,715.325439 110.467674,704.955383   C135.520264,694.841187 161.594620,688.197266 187.815750,682.228821   C208.578888,677.502808 229.737686,674.521484 250.515686,669.852661   C276.304260,664.057983 301.932404,657.519165 327.522949,650.889221   C336.751251,648.498352 345.670105,644.912964 354.873169,641.824768   C355.281555,623.464417 355.306183,605.416382 348.572540,587.867065   C341.432953,569.259827 327.402191,559.701111 309.043335,555.009888   C295.807465,551.627686 282.383240,549.752014 268.681641,549.944397   C258.652008,550.085205 248.538284,549.186829 238.605362,550.181946   C220.814056,551.964417 203.811066,556.298279 189.730331,568.623535   C176.304581,580.375427 168.431595,595.482117 161.982697,611.617065   C161.922791,611.766968 161.966339,611.957336 161.909439,612.109314   C159.288681,619.109680 159.257080,619.277954 152.072037,617.959473   C132.721832,614.408569 113.425377,610.561401 94.060867,607.092651   C74.334381,603.559082 54.547661,600.362793 34.798691,596.952942   C31.282297,596.345886 27.821466,595.417053 23.906855,594.540955   C32.993774,563.261230 45.614395,533.908630 66.141541,508.177887   C81.866310,488.466949 100.727257,472.792572 123.128578,461.564178   C142.366623,451.921356 162.892792,445.661011 184.102432,442.114868   C197.640289,439.851410 211.316727,437.973083 225.004745,437.154266   C246.006989,435.897827 267.074219,435.176636 288.110962,435.237549   C302.605377,435.279572 317.159393,436.468292 331.573334,438.129089   C363.015656,441.751984 394.053528,447.404297 422.128326,463.133240   C431.611267,468.446075 440.394928,475.007080 449.753784,481.253479  M354.492737,797.002441   C354.661530,793.875305 354.966583,790.748596 354.976166,787.620972   C355.025513,771.503845 354.999054,755.386475 354.999054,739.736511   C328.793060,746.185974 302.964020,753.039673 276.896423,758.816650   C251.391312,764.469055 225.859634,769.817566 201.308044,778.993164   C188.184662,783.897705 177.419510,792.011963 169.055450,803.074768   C158.614273,816.884949 156.333725,832.592468 158.912354,849.490906   C162.078110,870.236816 172.749725,886.011963 189.458176,898.114319   C212.258987,914.629578 237.788010,915.797302 264.014343,910.363403   C285.354950,905.941772 304.152130,895.904846 320.902771,881.801758   C332.971039,871.641052 341.607605,859.398499 347.127197,844.691467   C352.814667,829.537231 353.766113,813.759888 354.492737,797.002441  z"/>


</svg>