<svg xmlns="http://www.w3.org/2000/svg" xmlns:xlink="http://www.w3.org/1999/xlink" version="1.1" id="Layer_1" x="0px" y="0px" width="100%" viewBox="0 0 1104 1104" enable-background="new 0 0 1104 1104" xml:space="preserve">

<path fill="#859044" opacity="1.000000" stroke="none" d=" M1030.000000,937.000000   C873.528137,937.000000 717.556274,937.000000 560.971863,937.000000   C561.681091,930.581970 561.731018,924.351990 563.138916,918.445740   C567.827820,898.775146 571.989380,878.891418 578.218079,859.694580   C589.080566,826.216187 605.225464,795.083557 625.500183,766.340027   C636.404236,750.881409 648.572144,736.259827 660.850586,721.840210   C673.463135,707.028198 686.674194,692.704163 700.045227,678.565491   C714.891846,662.866638 730.038696,647.440552 745.386902,632.230774   C757.737732,619.991333 770.558105,608.224426 783.217529,596.298096   C793.330444,586.770752 803.658875,577.467834 813.635742,567.801147   C831.670837,550.326782 849.947510,533.069458 867.306396,514.939270   C882.148804,499.437439 897.193298,484.004395 908.861145,465.720428   C922.095581,444.981628 932.339539,422.894409 935.743103,398.513153   C939.268127,373.261749 937.918274,348.052307 926.916565,324.372284   C920.894653,311.410767 912.183289,300.342926 900.355774,292.103516   C885.812134,281.971954 869.583862,276.706390 851.910950,274.858429   C832.018677,272.778381 812.595032,273.991669 793.879700,281.074890   C780.015076,286.322266 767.975525,294.308563 758.284424,306.014130   C744.677612,322.449371 737.689087,341.507843 734.049866,362.067474   C732.090698,373.135803 730.711792,384.306793 728.963379,396.161346   C722.890747,395.730408 716.200073,395.380188 709.535645,394.751434   C701.064575,393.952148 692.614929,392.924988 684.155640,391.999847   C672.116638,390.683167 660.082886,389.315460 648.036011,388.074829   C640.361084,387.284424 632.658997,386.759674 624.982605,385.981934   C612.603760,384.727692 600.241394,383.310699 587.859863,382.085114   C585.092224,381.811157 582.274353,382.044891 578.589539,382.044891   C579.435913,374.579926 579.680054,367.531006 581.114502,360.733276   C584.791443,343.307648 588.350891,325.812592 593.149231,308.679108   C599.696106,285.301880 610.068176,263.509186 623.907471,243.486221   C633.535645,229.556000 644.891296,217.265381 657.937988,206.339371   C671.265381,195.178329 685.769653,185.920853 701.133606,178.138992   C718.615906,169.284180 736.882751,162.001511 756.179321,158.109634   C772.107727,154.897110 788.150269,151.829803 804.293945,150.221405   C821.213135,148.535721 838.342346,147.716415 855.327026,148.236954   C877.685364,148.922134 900.006165,151.538864 921.732849,157.150436   C942.621521,162.545547 962.724182,170.038925 981.669495,180.754929   C998.750427,190.416443 1014.370056,201.896759 1028.033569,215.772186   C1045.054932,233.057632 1059.740234,252.286224 1069.778442,274.569427   C1077.511475,291.735992 1082.942139,309.601593 1086.213013,328.284363   C1089.644287,347.883118 1089.829712,367.566681 1088.726440,387.129639   C1087.128418,415.466766 1080.693115,443.015472 1069.909790,469.398956   C1059.367188,495.193878 1045.727173,519.353882 1029.833374,542.152466   C1020.698303,555.256165 1011.065308,568.191956 1000.255493,579.910950   C979.162964,602.777527 957.326477,624.976440 935.326355,646.980164   C922.371460,659.937195 908.495361,671.972046 895.061951,684.452148   C884.879028,693.912292 874.633362,703.308594 864.608765,712.934509   C850.947388,726.052856 837.043335,738.959045 824.035889,752.706177   C811.507141,765.947571 800.363464,780.420044 791.049744,796.856445   C890.488098,796.856445 989.382141,796.856445 1088.637939,796.856445   C1088.637939,843.558594 1088.637939,889.952454 1088.637939,937.000000   C1069.349854,937.000000 1049.924927,937.000000 1030.000000,937.000000  z"/>
<path fill="#859044" opacity="1.000000" stroke="none" d=" M355.999268,748.000000   C355.999268,811.129456 355.999268,873.758850 355.999268,936.693970   C305.671692,936.693970 255.617279,936.693970 205.113342,936.693970   C205.113342,748.335205 205.113342,559.992737 205.113342,370.100952   C162.980759,409.984344 115.773109,440.005737 64.492310,463.605469   C47.085018,471.616364 28.798822,477.717407 10.000687,485.047424   C10.000687,482.231384 10.000687,480.638367 10.000687,479.045319   C10.000678,436.720764 10.062797,394.395996 9.897707,352.072083   C9.882399,348.147369 10.889886,346.230682 14.689780,344.997162   C40.137955,336.736603 63.826797,324.672485 86.167130,310.140686   C103.994797,298.544281 121.569504,286.468719 138.501617,273.611725   C154.668884,261.335571 169.244843,247.193741 182.794052,231.936371   C195.645905,217.464264 206.855240,201.908051 216.197266,185.080780   C221.844833,174.908096 226.304153,164.052521 230.908813,153.336807   C232.499969,149.634003 234.058578,147.845566 238.547974,147.872772   C275.872192,148.098923 313.198364,148.001190 350.523926,148.001343   C352.160797,148.001358 353.797638,148.001358 355.999268,148.001358   C355.999268,348.046509 355.999268,547.773254 355.999268,748.000000  z"/>
</svg>